<?xml version="1.0" encoding="UTF-8"?>
<svg id="_レイヤー_2" data-name="レイヤー 2" xmlns="http://www.w3.org/2000/svg" viewBox="0 0 697.34 95.87">
  <defs>
    <style>
      .cls-1 {
        fill: #231815;
      }
    </style>
  </defs>
  <g id="_レイヤー_1-2" data-name="レイヤー 1">
    <g>
      <g>
        <path class="cls-1" d="M39.52,40.86v-8.23h9.34v8.23h13.2v9.28h-13.2v6.21h14.24v9.34h-11.56c4.77,8.43,10,12.15,12.74,13.98l-3.85,11.04c-5.1-3.99-8.88-9.34-11.56-15.16v18.88h-9.34v-20.38c-2.94,6.34-7.19,12.02-12.35,16.79l-5.75-9.21c7.51-4.83,11.43-10.32,14.63-15.94h-11.43c1.44,1.83,2.03,2.42,2.94,3.27l-5.62,7.45c-2.74-5.16-3.07-6.47-3.72-9.15v27.18h-9.02v-24.7c-2.22,7.51-4.64,11.24-6.14,13.46l-3.07-12.87c3.85-4.84,5.62-8.62,8.49-17.9H1.24v-9.02h7.97v-10.78h9.02v10.78h6.21v3.99c3.14-6.08,3.92-11.56,4.18-13.59l8.75.85c-.26,1.63-.59,3.27-1.24,6.21h3.4ZM29.27,56.35l-5.36-3.92h-5.68v2.87c1.24,3.01,3.53,6.6,6.21,10.13v-9.08h4.84ZM39.52,56.35v-6.21h-6.21c-1.31,3.14-2.68,5.36-3.27,6.21h9.47Z"/>
        <path class="cls-1" d="M69.51,82.81c.39-.07,10.98-.78,12.15-.91v-15.68h-10.39v-9.47h30.57v9.47h-10.19v14.9c7.32-.78,10.26-1.31,12.48-1.7l.13,9.28c-7.38,1.5-10.52,1.83-33.71,4.38l-1.05-10.26ZM125.5,41.58h6.21v9.47h-18.23c.39,6.27,1.11,17.97,4.83,26.53.39.98,1.83,4.38,3.46,4.38,1.76,0,5.29-4.51,6.86-8.88l4.12,10.39c-1.05,2.94-4.31,11.11-10.78,11.11-3.01,0-6.14-1.7-7.9-3.66-9.47-10.32-10.19-29.14-10.58-39.85h-33.45v-9.47h33.12c-.07-1.05-.33-8.62-.33-9.08h10.45v9.08h6.4c-1.7-2.48-3-4.44-4.77-6.08l8.43-3.4c.98.72,1.83,1.31,6.27,7.64l-4.12,1.83Z"/>
        <path class="cls-1" d="M152.08,54.19c-5.16,3.14-7.51,4.12-9.93,5.03l-4.96-9.93c15.94-6.27,22.73-11.76,26.59-17.18h11.63c2.81,3.33,9.47,10.71,26.26,17.05l-5.1,9.87c-1.96-.85-5.1-2.22-9.73-5.03v3.99h-34.76v-3.79ZM189.65,95.09c-.65-1.24-1.37-2.61-2.61-4.57-11.11,1.57-33.32,2.48-45.08,2.81l-1.57-10.13c.33.06,8.62.06,9.54.06.52-1.05,2.68-5.42,4.57-11.3h-14.57v-9.41h58.93v9.41h-13.52c2.94,3.2,7.32,7.97,13.72,18.23l-9.41,4.9ZM179.72,49.23c-5.68-4.25-8.49-7.38-10.19-9.21-1.57,2.03-4.12,4.77-10.06,9.21h20.25ZM183.77,71.96h-18.36c-2.35,5.49-3.14,7.19-5.16,11.3,7.71-.06,14.76-.06,21.3-.72-2.74-3.66-4.18-5.36-5.49-6.92l7.71-3.66Z"/>
        <path class="cls-1" d="M225.38,94.5h-9.93v-21.75c-2.68,2.29-5.03,3.92-6.92,5.23l-2.48-11.56c7.32-4.38,13.33-11.43,15.48-15.68h-14.31v-9.15h8.23v-8.95h9.93v8.95h6.66v9.15c-.98,2.42-2.03,4.84-5.23,9.47,3.59,3.92,6.6,5.68,8.95,6.99l-4.9,9.34c-1.37-1.31-3.14-2.94-5.49-6.27v24.24ZM244.78,32.63h10.19v16.2h12.74v10.06h-12.74v23.91h13.72v9.93h-38.87v-9.93h14.96v-23.91h-11.76v-10.06h11.76v-16.2Z"/>
      </g>
      <g>
        <path class="cls-1" d="M320.86,59.78c-4.38,12.4-12.33,26.39-19.87,34.99l-9.38-13.8c2.85-3.4,11.82-14.19,17.94-29.49l11.31,8.3ZM317.7,36.89l-8.76,11.3c-6.22-5.2-10.09-7.7-17.02-11l7.95-11.9c2.34,1.1,10.19,4.6,17.63,10.5l-.3-2.2,8.15-2V7.7h15.18v19.99l8.56-2.3V.5h14.78v21.09l23.44-6c.2,11.2-.31,36.09-1.83,43.28-.51,2.4-1.53,7.5-7.54,8.6l12.54,4.6c-1.33,15.29-3.06,21.79-13.66,21.79h-41.07c-6.73,0-10.39-4.1-10.39-10.2v-37.09l-6.11,1.6-1.53-11.3ZM302.82,0c6.93,2.6,12.94,6.4,18.04,9.8l-8.97,12.4c-5.91-4.6-9.48-7-17.12-10.6l8.05-11.6ZM368.15,67.68l-2.55-13.79h3.06c3.16,0,3.46-1.9,3.67-3.5.1-1.3.61-11.7.61-16.2l-9.07,2.3v36.29h-14.78v-32.39l-8.56,2.2v33.79c0,1.9.1,3.5,3.46,3.5h27.52c3.36,0,3.57-1.7,4.59-12.2h-7.95Z"/>
        <path class="cls-1" d="M399.04,5.5h89.07v88.77h-15.59v-4.4h-58.09v4.4h-15.39V5.5ZM414.42,19.59v20.89h21.3v-20.89h-21.3ZM414.42,54.38v21.39h21.3v-21.39h-21.3ZM450.6,40.49h21.91v-20.89h-21.91v20.89ZM450.6,54.38v21.39h21.91v-21.39h-21.91Z"/>
        <path class="cls-1" d="M500.44,3.5h41.38v35.39h-27.52v56.48h-13.86V3.5ZM514.41,13.4v4.6h14.06v-4.6h-14.06ZM514.41,25.39v4.6h14.06v-4.6h-14.06ZM527.96,61.08v-6.7h-8.56v-11.8h52.18v11.8h-7.54v6.7h8.97v12.1h-8.97v20.79h-13.66v-20.79h-9.48c-2.55,13.8-10.09,19.29-13.15,21.49l-10.6-9.8c2.95-1.9,7.64-5,9.58-11.7h-9.07v-12.1h10.29ZM550.38,61.08v-6.7h-8.66v6.7h8.66ZM548.75,3.5h41.78v81.87c0,1.8,0,10-8.66,10h-12.94l-3.26-14.3h8.36c2.24,0,2.45-.4,2.45-2.1v-40.09h-27.72V3.5ZM562.71,13.4v4.6h13.65v-4.6h-13.65ZM562.71,25.39v4.6h13.65v-4.6h-13.65Z"/>
        <path class="cls-1" d="M616.83,40.89c-6.62,3.6-9.68,4.9-12.94,6.4l-6.62-14.6c3.26-1,6.73-1.9,12.94-4.8-3.47-3.3-6.22-5.9-9.27-7.9l7.34-7V2.9h45.66c1.43,2.1,2.95,4.1,6.01,7.4.92-.8,5.81-5,10.19-10.3l11.11,6.2c-4.69,5.4-9.88,10.3-12.13,12.29,2.55,1.9,3.06,2.1,4.28,2.8,7.85-7.5,10.19-10.4,12.02-12.8l11.11,6.6c-1.63,2-4.89,6-11.62,12.2,5.81,2.7,9.48,4.2,12.43,5.3l-6.32,14.3c-3.16-1.2-7.03-2.6-13.04-5.9v4.5h-10.8v7.6h26.39v13.3h-26.39v10.9c0,2.6.82,3.2,2.96,3.2h7.03c2.65,0,3.87-.3,4.18-10.9l14.78,2.5c-.81,12.9-1.73,22.09-11.21,22.09h-24.97c-5.61,0-8.25-4.3-8.25-7.7v-20.09h-11.41c-2.65,12.5-9.68,23.19-33.63,29.49l-7.74-14.6c12.43-1.8,22.62-7,25.48-14.89h-22.93v-13.3h24.97v-7.6h-9.58v-4.6ZM614.49,14.49c2.85,2.2,5.5,4.3,8.05,6.6,4.28-2.8,6.42-4.7,8.66-6.6h-16.71ZM664.32,32.29c-9.27-6.8-14.27-12.5-16.92-15.49-2.65,3.1-7.13,8.6-16.82,15.49h33.73ZM641.39,45.48v7.6h10.29v-7.6h-10.29Z"/>
      </g>
    </g>
  </g>
</svg>