<?xml version="1.0" encoding="UTF-8"?>
<svg id="_レイヤー_2" data-name="レイヤー 2" xmlns="http://www.w3.org/2000/svg" viewBox="0 0 602.67 133.7">
  <defs>
    <style>
      .cls-1 {
        fill: #fff;
      }
    </style>
  </defs>
  <g id="_レイヤー_1-2" data-name="レイヤー 1">
    <g>
      <g>
        <path class="cls-1" d="M46.48,84.98l-13.3,3.36v-20.3h10.92v-17.78h-10.92v-22.54h12.74V9.94H2.1v17.78h13.86v22.54H3.22v17.78h12.74v24.64c-5.88,1.4-11.34,2.52-15.96,3.5l3.92,19.04c13.16-3.5,29.68-7.84,44.8-12.18l-2.24-18.06Z"/>
        <path class="cls-1" d="M115.08,111.44c3.36-2.38,7.14-5.32,10.92-8.54l-11.62-8.82h6.44v-34.3H52.22v34.3h19.74c-10.36,7.84-23.8,14.7-36.4,18.76,3.64,3.5,8.68,10.08,11.06,14.28,7.28-2.94,14.84-7,21.84-11.62v17.5h18.34v-25.62c7.42,11.2,17.08,20.3,28.98,25.76,2.66-4.9,7.98-12.18,11.9-15.82-4.48-1.54-8.68-3.5-12.6-5.88ZM68.88,79.94v-6.02h34.16v6.02h-34.16ZM103.46,102.48c-2.66-2.66-5.04-5.46-7.14-8.4h15.4c-2.24,2.66-5.46,5.88-8.26,8.4Z"/>
        <rect class="cls-1" x="44.24" y="40.18" width="82.74" height="15.96"/>
        <path class="cls-1" d="M122.64,4.34H49.98v33.04h72.66V4.34ZM70.98,24.08h-5.74v-6.44h5.74v6.44ZM88.76,24.08h-5.88v-6.44h5.88v6.44ZM106.68,24.08h-6.02v-6.44h6.02v6.44Z"/>
      </g>
      <g>
        <path class="cls-1" d="M183.85,74.48l-10.64,4.62v-27.16h10.92v-19.04h-10.92V2.24h-17.92v30.66h-12.04v19.04h12.04v34.58c-5.74,2.24-10.92,4.2-15.26,5.74l6.58,20.3c12.32-5.88,27.58-13.02,41.44-20.02l-4.2-18.06Z"/>
        <path class="cls-1" d="M254.27,104.44c-.42,9.52-.84,10.92-2.66,10.92h-3.36c-1.82,0-2.1-.42-2.1-4.2v-13.72h15.26v-45.92h-69.86v45.92h10.36c-2.24,8.82-7.56,14.98-27.86,19.04,3.78,3.92,8.68,12.18,10.5,17.22,26.32-7.42,33.6-19.74,36.4-36.26h6.86v14c0,15.4,2.8,21,17.08,21h8.82c10.22,0,14.7-4.34,16.38-21-4.76-1.12-12.46-4.2-15.82-7ZM242.51,85.26h-32.9v-5.18h32.9v5.18ZM242.51,68.74h-32.9v-5.04h32.9v5.04Z"/>
        <path class="cls-1" d="M266.87,30.8h-17.22c1.12-2.1,2.24-4.62,3.78-7.56h11.2V7.7h-30.52V.56h-19.04v7.14h-27.72v15.54h13.3l-2.66.56c.98,2.1,1.82,4.62,2.52,7h-15.26v16.38h81.62v-16.38ZM231.17,30.8h-12.32c-.56-2.24-1.54-5.04-2.52-7.56h17.36c-.7,2.52-1.68,5.32-2.52,7.56Z"/>
      </g>
      <path class="cls-1" d="M320.38,129.05c-23.21-1.76-30.03-23.76-9.02-38.83,2.42-1.76,6.16-4.07,9.24-5.94-.11-2.64-1.1-3.85-4.29-3.19-4.73.99-11.33,6.6-18.15,13.09-2.64,2.42-6.6,7.15-9.24,9.68l-4.18,3.96v-20.46c7.04-6.27,13.53-14.63,18.04-23.98h-17.71v-15.18h23.65l2.64-8.91h16.61c-.66,2.86-1.54,5.61-2.64,8.91h25.08v15.18h-32.34c-2.2,4.4-2.97,5.83-3.63,7.26.55-.44,1.54-1.21,3.19-1.98,6.27-2.86,14.85-1.54,17.05,8.14,9.35-4.95,23.54-10.34,23.54-10.34v17.82c-2.31,0-11.99,3.63-22.55,8.36v15.4h-15.07v-7.92c-.88.55-1.87,1.1-2.64,1.65-6.71,4.73-5.94,10.89,3.74,11.44,12.65.77,24.53-.99,30.69-1.98v16.5l-8.25.88c-5.94.66-17.6.88-23.76.44Z"/>
      <g>
        <polygon class="cls-1" points="393.9 47.88 374.3 47.88 374.3 12.46 421.62 12.46 421.62 0 442.34 0 442.34 12.46 489.8 12.46 489.8 47.88 469.08 47.88 469.08 31.64 393.9 31.64 393.9 47.88"/>
        <path class="cls-1" d="M372.48,72.1v-19.88h68.04v-15.54h19.88v15.54h31.92v19.88h-31.92v38.08c0,10.92-2.1,16.38-8.96,19.46-7,3.08-16.66,3.5-28.98,3.5-.84-6.02-4.06-15.12-6.72-20.72,7.98.42,18.06.42,21,.42s3.78-.7,3.78-3.08v-37.66h-68.04Z"/>
        <path class="cls-1" d="M386.06,83.72l15.54-10.36c7.7,7.98,16.66,19.18,20.44,27.44l-16.66,11.62c-3.22-7.98-11.62-20.02-19.32-28.7Z"/>
      </g>
      <path class="cls-1" d="M584.89,60.34c-5.6-2.52-12.6-2.94-21.14-1.26l24.92-18.34v-19.6h-68.88v21.84h36.68l-43.68,33.04v26.6l16.52-13.72c7.14-6.02,16.38-11.9,31.36-12.32,15.12-.42,21.28,5.04,21.28,15.68,0,5.04-1.4,10.36-5.46,14.42-4.9-11.2-11.06-17.22-22.96-19.6-13.72-2.66-21.56,2.8-25.76,10.92-2.1,4.2-2.66,7.42-2.66,10.36,0,11.2,6.86,18.2,17.92,21.42,12.6,3.78,28.28,1.82,39.48-3.92,12.18-6.3,20.44-18.06,20.16-34.02-.28-14.56-7.14-26.74-17.78-31.5ZM550.03,113.82c-5.74-2.1-8.4-6.3-6.16-9.94.98-1.54,2.52-2.8,5.6-2.38,6.02.7,10.22,6.02,12.6,12.6-1.4.28-7.7,1.12-12.04-.28Z"/>
    </g>
  </g>
</svg>