<svg width="400" height="45" viewBox="0 0 400 45" fill="none" xmlns="http://www.w3.org/2000/svg">
<rect width="400" height="45" fill="white"/>
<mask id="mask0_4557_1316" style="mask-type:alpha" maskUnits="userSpaceOnUse" x="0" y="0" width="400" height="45">
<path d="M400 45H0V0H400V45Z" fill="#D9D9D9"/>
</mask>
<g mask="url(#mask0_4557_1316)">
<path fill-rule="evenodd" clip-rule="evenodd" d="M400 45H0V26C0 25.4477 0.447723 25 1 25C1.55228 25 2 25.4477 2 26V43H398V-384C398 -384.552 398.448 -385 399 -385C399.552 -385 400 -384.552 400 -384V45ZM1 1C0.447723 1 0 0.552284 0 0V-429H400V-410C400 -409.448 399.552 -409 399 -409C398.448 -409 398 -409.448 398 -410V-427H2V0C2 0.552284 1.55228 1 1 1Z" fill="#79DDE4"/>
</g>
</svg>
