<svg width="142" height="141" viewBox="0 0 142 141" fill="none" xmlns="http://www.w3.org/2000/svg">
<path d="M130.539 73.7142C130.627 73.1051 130.82 72.5549 131.118 72.0636C131.415 71.5808 131.787 71.1791 132.236 70.8582C132.692 70.5472 133.199 70.344 133.755 70.2488L134.177 71.7934C133.595 71.9462 133.114 72.2186 132.733 72.6106C132.362 73.0038 132.137 73.4749 132.058 74.024C132.014 74.3328 132.023 74.6055 132.085 74.8421C132.155 75.0885 132.267 75.2841 132.421 75.4288C132.574 75.5821 132.771 75.676 133.011 75.7104C133.294 75.7511 133.538 75.6985 133.743 75.5528C133.955 75.4169 134.136 75.189 134.287 74.8692L135.143 73.114C135.482 72.4009 135.91 71.8888 136.428 71.5778C136.945 71.2668 137.517 71.1562 138.143 71.2461C138.692 71.3249 139.158 71.5274 139.54 71.8537C139.921 72.1885 140.193 72.6127 140.355 73.1264C140.525 73.6499 140.566 74.2247 140.476 74.851C140.393 75.4257 140.215 75.9386 139.94 76.3894C139.674 76.8415 139.336 77.2133 138.926 77.5048C138.524 77.806 138.07 78.008 137.565 78.1106L137.129 76.5771C137.636 76.4573 138.046 76.2271 138.357 75.8866C138.677 75.5472 138.873 75.1288 138.944 74.6312C138.986 74.3396 138.972 74.0748 138.901 73.837C138.838 73.6004 138.726 73.4048 138.565 73.2503C138.41 73.1056 138.213 73.016 137.973 72.9815C137.707 72.9434 137.459 72.9953 137.228 73.1373C137.006 73.2806 136.814 73.5201 136.652 73.8558L135.846 75.5394C135.488 76.2672 135.063 76.7884 134.571 77.1031C134.078 77.4264 133.51 77.5419 132.866 77.4495C132.317 77.3708 131.853 77.1597 131.473 76.8162C131.094 76.4728 130.819 76.0351 130.65 75.5031C130.482 74.971 130.445 74.3747 130.539 73.7142Z" fill="#154A7D"/>
<path d="M129.337 83.3929C129.559 82.7359 129.882 82.1683 130.309 81.6901C130.733 81.2202 131.228 80.8477 131.797 80.5728C132.362 80.3062 132.971 80.1547 133.624 80.1186C134.276 80.0824 134.943 80.1792 135.625 80.409C136.306 80.6388 136.897 80.9614 137.397 81.3769C137.903 81.8034 138.296 82.2926 138.576 82.8444C138.862 83.4072 139.026 84.0066 139.068 84.6426C139.118 85.2813 139.032 85.9292 138.81 86.5862C138.589 87.2432 138.28 87.7931 137.884 88.2357C137.485 88.6866 137.04 89.0304 136.548 89.2672C136.065 89.5067 135.58 89.6311 135.092 89.6405L134.896 87.9009C135.414 87.8834 135.89 87.7192 136.325 87.4082C136.767 87.1 137.086 86.6544 137.283 86.0713C137.477 85.4964 137.513 84.9416 137.391 84.4067C137.267 83.8801 137.008 83.4133 136.615 83.0064C136.219 82.6076 135.7 82.3003 135.06 82.0844C134.419 81.8684 133.817 81.7979 133.252 81.8727C132.692 81.9585 132.204 82.1734 131.786 82.5173C131.366 82.8694 131.058 83.3329 130.865 83.9078C130.668 84.4909 130.648 85.0376 130.806 85.5479C130.971 86.061 131.255 86.4812 131.656 86.8087L130.448 88.0749C130.065 87.7722 129.75 87.3778 129.502 86.8919C129.262 86.4087 129.12 85.867 129.076 85.2666C129.029 84.6745 129.116 84.0499 129.337 83.3929Z" fill="#154A7D"/>
<path d="M128.019 89.8214L136.634 94.2465L134.989 97.4497C134.688 98.0356 134.315 98.4966 133.869 98.8329C133.428 99.1808 132.937 99.377 132.398 99.4216C131.866 99.47 131.311 99.3458 130.733 99.0488C130.14 98.7439 129.708 98.3419 129.438 97.8428C129.164 97.3515 129.05 96.8153 129.095 96.2344L124.622 96.4358L125.537 94.655L130.405 94.4811L129.281 95.1899L130.392 93.0275L127.212 91.394L128.019 89.8214ZM131.779 93.7402L130.93 95.3939C130.783 95.6791 130.711 95.9535 130.712 96.2171C130.72 96.4846 130.795 96.7277 130.936 96.9463C131.077 97.1649 131.279 97.3415 131.541 97.4761C131.811 97.6147 132.072 97.6757 132.324 97.6591C132.584 97.6464 132.821 97.5637 133.036 97.411C133.259 97.2622 133.443 97.0452 133.59 96.76L134.439 95.1064L131.779 93.7402Z" fill="#154A7D"/>
<path d="M121.906 101.695C122.338 101.131 122.842 100.681 123.415 100.346C123.989 100.011 124.595 99.7983 125.232 99.7082C125.869 99.6181 126.508 99.6546 127.147 99.8176C127.788 99.9927 128.391 100.297 128.955 100.729C129.526 101.167 129.975 101.67 130.303 102.239C130.632 102.808 130.835 103.411 130.913 104.05C130.991 104.689 130.939 105.326 130.757 105.962C130.582 106.603 130.275 107.209 129.837 107.78C129.399 108.351 128.893 108.804 128.319 109.139C127.745 109.474 127.14 109.687 126.503 109.777C125.872 109.872 125.24 109.835 124.606 109.665C123.966 109.502 123.361 109.202 122.79 108.764C122.227 108.331 121.78 107.825 121.45 107.244C121.127 106.668 120.926 106.061 120.848 105.422C120.77 104.783 120.819 104.143 120.994 103.502C121.164 102.868 121.468 102.265 121.906 101.695ZM123.185 102.676C122.894 103.054 122.693 103.452 122.581 103.868C122.476 104.29 122.454 104.71 122.516 105.128C122.572 105.554 122.717 105.955 122.952 106.332C123.182 106.716 123.489 107.055 123.875 107.351C124.26 107.646 124.664 107.853 125.087 107.97C125.512 108.099 125.937 108.136 126.363 108.08C126.79 108.036 127.19 107.906 127.563 107.69C127.936 107.474 128.268 107.177 128.558 106.799C128.843 106.428 129.042 106.034 129.154 105.617C129.266 105.201 129.29 104.777 129.227 104.346C129.166 103.928 129.02 103.527 128.791 103.143C128.568 102.764 128.264 102.427 127.879 102.132C127.494 101.836 127.086 101.627 126.656 101.505C126.225 101.382 125.8 101.346 125.38 101.395C124.955 101.451 124.552 101.584 124.172 101.795C123.799 102.011 123.469 102.305 123.185 102.676Z" fill="#154A7D"/>
<path d="M118.398 107.103L125.369 113.825L124.142 115.098L118.293 109.458L115.415 112.443L114.292 111.36L118.398 107.103Z" fill="#154A7D"/>
<path d="M113.871 112.32L120.015 119.807L118.648 120.929L113.494 114.648L110.288 117.279L109.298 116.073L113.871 112.32Z" fill="#154A7D"/>
<path d="M106.145 119.527L110.442 128.206L107.611 129.608C106.694 130.061 105.806 130.269 104.945 130.231C104.081 130.204 103.301 129.957 102.605 129.489C101.913 129.029 101.356 128.372 100.933 127.517C100.514 126.671 100.327 125.825 100.373 124.98C100.423 124.143 100.697 123.369 101.196 122.658C101.691 121.958 102.397 121.382 103.314 120.928L106.145 119.527ZM105.252 121.709L103.971 122.343C103.38 122.636 102.931 123.008 102.623 123.46C102.311 123.924 102.143 124.433 102.117 124.987C102.096 125.549 102.233 126.129 102.529 126.727C102.829 127.333 103.207 127.794 103.663 128.11C104.119 128.425 104.624 128.596 105.178 128.621C105.725 128.651 106.293 128.519 106.883 128.227L108.165 127.592L105.252 121.709Z" fill="#154A7D"/>
<path d="M93.2105 125.915C93.8943 125.721 94.5665 125.661 95.227 125.735C95.8875 125.809 96.5002 126.001 97.0649 126.309C97.6297 126.617 98.1198 127.028 98.5353 127.541C98.9448 128.065 99.2464 128.668 99.4401 129.352C99.6361 130.044 99.6959 130.716 99.6194 131.368C99.5429 132.021 99.3451 132.626 99.026 133.185C98.7068 133.744 98.2843 134.224 97.7584 134.625C97.2349 135.034 96.627 135.337 95.9349 135.533C95.2428 135.729 94.5665 135.79 93.906 135.716C93.2454 135.642 92.6328 135.451 92.068 135.142C91.5056 134.842 91.0208 134.434 90.6137 133.919C90.1982 133.406 89.8924 132.804 89.6964 132.112C89.5027 131.428 89.4471 130.755 89.5296 130.092C89.6144 129.437 89.8164 128.831 90.1355 128.272C90.4547 127.713 90.876 127.229 91.3996 126.819C91.9148 126.412 92.5184 126.111 93.2105 125.915ZM93.6498 127.466C93.1912 127.595 92.7926 127.794 92.4538 128.061C92.1175 128.336 91.8489 128.66 91.6481 129.032C91.4389 129.407 91.3159 129.816 91.2792 130.258C91.2341 130.703 91.2777 131.159 91.41 131.626C91.5422 132.093 91.7431 132.5 92.0125 132.847C92.276 133.205 92.595 133.489 92.9695 133.698C93.3381 133.918 93.7365 134.053 94.165 134.102C94.5935 134.152 95.037 134.112 95.4956 133.982C95.9459 133.855 96.3404 133.657 96.6791 133.39C97.0178 133.123 97.2906 132.798 97.4974 132.415C97.6982 132.043 97.8212 131.635 97.8663 131.189C97.9137 130.753 97.8713 130.301 97.739 129.834C97.6067 129.367 97.4047 128.956 97.1329 128.6C96.8611 128.245 96.5421 127.961 96.1759 127.75C95.8014 127.541 95.3988 127.407 94.9679 127.349C94.5395 127.299 94.1001 127.338 93.6498 127.466Z" fill="#154A7D"/>
<path d="M86.2448 129.36L89.2903 138.914L87.3944 139.002L84.9734 130.85L85.4669 130.827L83.7193 139.172L81.8883 139.257L79.3894 131.109L79.8829 131.086L78.2262 139.427L76.3302 139.515L78.4791 129.72L80.5049 129.626L83.0195 137.552L82.4482 137.578L84.219 129.454L86.2448 129.36Z" fill="#154A7D"/>
<path d="M73.7479 130.921L72.4459 140.518L71.0804 140.332L66.7635 132.505L67.4912 132.459L66.5073 139.712L64.7553 139.474L66.0573 129.877L67.4357 130.064L71.6683 137.933L71.005 137.987L71.9959 130.683L73.7479 130.921Z" fill="#154A7D"/>
<path d="M55.6754 128.074C56.2539 128.284 56.7533 128.584 57.1736 128.976C57.5857 129.365 57.9031 129.812 58.1257 130.317C58.3373 130.827 58.433 131.364 58.4129 131.928L56.8147 132.027C56.7837 131.425 56.6151 130.899 56.3088 130.447C55.9996 130.003 55.5842 129.686 55.0627 129.497C54.7694 129.391 54.5006 129.344 54.2563 129.357C54.0008 129.375 53.7865 129.445 53.6134 129.567C53.4321 129.685 53.3001 129.859 53.2174 130.087C53.12 130.356 53.1217 130.605 53.2227 130.835C53.3125 131.071 53.4986 131.295 53.781 131.508L55.325 132.704C55.9541 133.18 56.3682 133.704 56.5673 134.274C56.7663 134.844 56.758 135.426 56.5425 136.021C56.3535 136.542 56.0603 136.957 55.663 137.265C55.2576 137.569 54.7869 137.749 54.2508 137.804C53.7037 137.864 53.1328 137.786 52.538 137.57C51.992 137.372 51.5264 137.093 51.1409 136.732C50.7526 136.379 50.4574 135.973 50.2556 135.512C50.0426 135.057 49.9373 134.572 49.9397 134.057L51.53 133.942C51.5439 134.463 51.6858 134.911 51.9557 135.285C52.2227 135.667 52.5925 135.944 53.0651 136.116C53.3421 136.216 53.6043 136.256 53.8516 136.235C54.0959 136.222 54.3102 136.152 54.4944 136.025C54.6675 135.904 54.7954 135.729 54.8781 135.501C54.9697 135.248 54.9694 134.994 54.8773 134.74C54.7823 134.493 54.5869 134.257 54.2912 134.03L52.8073 132.897C52.1678 132.398 51.744 131.876 51.5361 131.33C51.3201 130.782 51.3228 130.202 51.5443 129.591C51.7333 129.07 52.0345 128.658 52.4481 128.356C52.8617 128.054 53.3461 127.875 53.9014 127.818C54.4567 127.761 55.048 127.846 55.6754 128.074Z" fill="#154A7D"/>
<path d="M46.5472 124.945C47.1454 125.296 47.6353 125.728 48.0168 126.243C48.3908 126.754 48.6545 127.315 48.8081 127.927C48.9543 128.535 48.9787 129.162 48.8814 129.808C48.7842 130.454 48.5538 131.088 48.1902 131.708C47.8266 132.329 47.3905 132.842 46.882 133.247C46.3616 133.655 45.8027 133.941 45.2054 134.103C44.5962 134.269 43.9761 134.307 43.3449 134.219C42.7093 134.138 42.0924 133.922 41.4942 133.571C40.896 133.221 40.4204 132.807 40.0676 132.329C39.7072 131.847 39.4611 131.341 39.3292 130.812C39.1929 130.29 39.1698 129.789 39.2599 129.31L41.0029 129.472C40.9147 129.983 40.9786 130.482 41.1948 130.97C41.4067 131.466 41.778 131.869 42.309 132.18C42.8324 132.487 43.3684 132.635 43.9167 132.625C44.4576 132.611 44.9673 132.452 45.4457 132.15C45.9167 131.843 46.323 131.398 46.6646 130.815C47.0063 130.231 47.198 129.656 47.2396 129.087C47.2693 128.522 47.1583 128 46.9065 127.521C46.6472 127.038 46.2559 126.643 45.7324 126.336C45.2014 126.025 44.6702 125.895 44.1386 125.945C43.6026 126.003 43.1334 126.195 42.7311 126.522L41.7371 125.081C42.1114 124.768 42.5616 124.539 43.0877 124.395C43.6095 124.259 44.1688 124.23 44.7657 124.309C45.3551 124.383 45.9489 124.595 46.5472 124.945Z" fill="#154A7D"/>
<path d="M40.5883 122.363L34.5263 129.916L31.7179 127.662C31.2042 127.25 30.8273 126.792 30.5872 126.288C30.3348 125.785 30.2409 125.265 30.3054 124.728C30.3644 124.198 30.5973 123.679 31.0042 123.172C31.4219 122.652 31.9022 122.309 32.4452 122.145C32.9815 121.975 33.5297 121.971 34.0898 122.131L34.789 117.708L36.3504 118.962L35.5449 123.766L35.0759 122.523L36.9718 124.044L39.2094 121.256L40.5883 122.363ZM35.9953 125.261L34.5455 124.097C34.2954 123.897 34.0412 123.77 33.7827 123.719C33.5189 123.673 33.2657 123.698 33.0233 123.792C32.7809 123.887 32.5675 124.049 32.383 124.279C32.1932 124.515 32.0811 124.759 32.0469 125.009C32.0072 125.266 32.0407 125.515 32.1472 125.756C32.2484 126.004 32.424 126.228 32.674 126.429L34.1239 127.593L35.9953 125.261Z" fill="#154A7D"/>
<path d="M30.1737 113.984C30.6384 114.521 30.9768 115.105 31.189 115.735C31.4012 116.365 31.487 117.001 31.4464 117.643C31.4058 118.285 31.241 118.903 30.952 119.497C30.6508 120.089 30.2313 120.618 29.6936 121.082C29.1494 121.553 28.5656 121.891 27.9423 122.098C27.3189 122.304 26.6866 122.381 26.0453 122.328C25.4039 122.275 24.7903 122.095 24.2043 121.789C23.6118 121.487 23.0804 121.065 22.61 120.52C22.1397 119.976 21.7984 119.389 21.5862 118.759C21.374 118.129 21.2882 117.493 21.3288 116.851C21.3629 116.214 21.5272 115.603 21.8219 115.016C22.1109 114.423 22.5275 113.891 23.0718 113.42C23.6094 112.956 24.1961 112.62 24.8316 112.415C25.4607 112.215 26.0958 112.141 26.7371 112.194C27.3785 112.247 27.9954 112.424 28.5879 112.725C29.1747 113.02 29.7033 113.439 30.1737 113.984ZM28.9541 115.038C28.6424 114.677 28.2939 114.4 27.9086 114.206C27.5168 114.017 27.1098 113.911 26.6876 113.886C26.2598 113.855 25.8375 113.917 25.4208 114.071C24.9983 114.218 24.6035 114.45 24.2363 114.768C23.8691 115.085 23.5853 115.439 23.3848 115.83C23.172 116.22 23.0501 116.629 23.0189 117.057C22.9755 117.484 23.0219 117.902 23.158 118.311C23.2941 118.721 23.518 119.106 23.8297 119.466C24.1357 119.82 24.4813 120.094 24.8666 120.288C25.2518 120.482 25.6617 120.592 26.0961 120.618C26.5183 120.642 26.9406 120.581 27.363 120.433C27.7788 120.292 28.1704 120.062 28.5376 119.745C28.9048 119.427 29.1919 119.07 29.399 118.674C29.606 118.277 29.728 117.868 29.7648 117.447C29.796 117.019 29.7468 116.598 29.6172 116.183C29.4811 115.773 29.2601 115.392 28.9541 115.038Z" fill="#154A7D"/>
<path d="M25.5943 109.479L17.599 114.945L16.6012 113.485L23.3087 108.9L20.9684 105.476L22.2562 104.596L25.5943 109.479Z" fill="#154A7D"/>
<path d="M21.4431 104.051L12.8778 108.571L12.0526 107.008L19.2382 103.215L17.3026 99.5478L18.6822 98.8197L21.4431 104.051Z" fill="#154A7D"/>
<path d="M15.9018 95.04L6.52576 97.4666L5.73426 94.4084C5.47803 93.4183 5.45682 92.5062 5.67064 91.672C5.87389 90.8316 6.27579 90.1189 6.87634 89.5337C7.4685 88.9508 8.22604 88.5398 9.14896 88.301C10.0635 88.0643 10.9295 88.055 11.7469 88.2732C12.5559 88.4935 13.2573 88.9207 13.8511 89.5548C14.4344 90.1827 14.8541 90.9917 15.1103 91.9818L15.9018 95.04ZM13.9486 93.7192L13.5903 92.3349C13.4253 91.6972 13.153 91.1813 12.7735 90.7872C12.3834 90.3868 11.9198 90.1174 11.3826 89.9789C10.837 89.8425 10.2412 89.858 9.5952 90.0252C8.94076 90.1945 8.41227 90.4701 8.00973 90.8518C7.6072 91.2335 7.33668 91.6929 7.19818 92.2301C7.05752 92.7589 7.0697 93.3421 7.23473 93.9797L7.59302 95.3641L13.9486 93.7192Z" fill="#154A7D"/>
<path d="M12.2997 81.1217C12.3517 81.8304 12.275 82.5009 12.0694 83.133C11.8638 83.765 11.553 84.3266 11.1372 84.8177C10.7214 85.3088 10.2205 85.7063 9.63449 86.01C9.03922 86.3057 8.3872 86.4796 7.67844 86.5316C6.96104 86.5843 6.29061 86.5075 5.66717 86.3013C5.04373 86.095 4.49046 85.7794 4.00737 85.3543C3.52428 84.9292 3.13919 84.4187 2.85212 83.8228C2.5564 83.2275 2.3822 82.5711 2.32953 81.8537C2.27685 81.1363 2.35331 80.4616 2.55891 79.8295C2.76451 79.1974 3.07522 78.6358 3.49104 78.1447C3.89822 77.6543 4.39513 77.2615 4.98176 76.9664C5.56776 76.6627 6.21946 76.4845 6.93686 76.4318C7.64562 76.3798 8.31636 76.4609 8.94908 76.6751C9.57316 76.89 10.1267 77.21 10.6098 77.6351C11.0929 78.0602 11.4823 78.5704 11.7781 79.1656C12.0731 79.7523 12.247 80.4043 12.2997 81.1217ZM10.692 81.2397C10.6571 80.7643 10.5429 80.3339 10.3495 79.9483C10.1475 79.5634 9.88439 79.2352 9.56029 78.9635C9.23556 78.6832 8.86004 78.4805 8.43374 78.3554C8.0068 78.2216 7.55131 78.1725 7.06728 78.208C6.58325 78.2436 6.14414 78.3584 5.74996 78.5524C5.3465 78.7385 5.00462 78.9938 4.72431 79.3186C4.43473 79.6353 4.22242 79.9985 4.08739 80.4081C3.95236 80.8178 3.90229 81.2603 3.9372 81.7357C3.97147 82.2024 4.08532 82.6286 4.27873 83.0141C4.47215 83.3997 4.73555 83.7323 5.06892 84.0119C5.39302 84.2836 5.76854 84.4863 6.19548 84.6201C6.61378 84.7545 7.06494 84.8039 7.54897 84.7684C8.033 84.7328 8.47643 84.6177 8.87926 84.423C9.28208 84.2283 9.62396 83.9729 9.9049 83.6569C10.1852 83.3321 10.3972 82.9646 10.5409 82.5543C10.6759 82.1447 10.7263 81.7065 10.692 81.2397Z" fill="#154A7D"/>
<path d="M10.3069 73.3815L0.333562 74.4267L0.631925 72.5523L9.10513 71.8343L9.02748 72.3222L1.21026 68.919L1.4984 67.1088L9.98387 66.3138L9.90622 66.8017L2.07469 63.4884L2.37306 61.614L11.5289 65.7041L11.2101 67.7069L2.93882 68.5623L3.02874 67.9974L10.6257 71.3787L10.3069 73.3815Z" fill="#154A7D"/>
<path d="M11.2375 61.0322L2.10754 57.8007L2.56733 56.5017L11.1105 53.8714L11.0067 54.5932L4.10717 52.1511L4.69708 50.4844L13.8271 53.7159L13.3629 55.0272L4.79677 57.5666L4.87885 56.9061L11.8274 59.3655L11.2375 61.0322Z" fill="#154A7D"/>
<path d="M17.5744 44.0962C17.2517 44.6202 16.8558 45.0482 16.3868 45.3802C15.9222 45.7048 15.4202 45.9249 14.8808 46.0406C14.3386 46.1443 13.7932 46.1291 13.2448 45.9949L13.4727 44.41C14.0677 44.5016 14.6176 44.4433 15.1224 44.2351C15.6198 44.0224 16.014 43.6798 16.3048 43.2075C16.4684 42.9419 16.5687 42.6881 16.6057 42.4463C16.6399 42.1925 16.615 41.9685 16.531 41.7743C16.4516 41.5727 16.3085 41.4083 16.1019 41.281C15.8584 41.1311 15.6137 41.0822 15.3678 41.1343C15.1191 41.1745 14.8619 41.3113 14.5961 41.5446L13.1121 42.8139C12.5175 43.3332 11.9209 43.6326 11.3225 43.7119C10.724 43.7911 10.1554 43.6649 9.61673 43.3332C9.14443 43.0423 8.79793 42.6712 8.57721 42.2197C8.36103 41.7609 8.28057 41.2635 8.33581 40.7275C8.38822 40.1797 8.5803 39.6364 8.91205 39.0977C9.21653 38.6032 9.58457 38.2039 10.0162 37.8997C10.4404 37.591 10.8984 37.3845 11.3901 37.2801C11.879 37.1639 12.3755 37.1592 12.8797 37.2661L12.6696 38.8468C12.1564 38.7546 11.6891 38.8027 11.2678 38.9911C10.839 39.1749 10.4929 39.4808 10.2293 39.9088C10.0748 40.1598 9.98273 40.4084 9.95313 40.6548C9.91615 40.8967 9.94106 41.1207 10.0279 41.3268C10.1118 41.521 10.2571 41.6817 10.4638 41.809C10.6925 41.9499 10.9409 42.001 11.2089 41.9625C11.4695 41.9194 11.741 41.7762 12.0232 41.5327L13.4331 40.3093C14.0516 39.7843 14.649 39.4753 15.2253 39.3824C15.8062 39.2821 16.3733 39.4024 16.9268 39.7432C17.3991 40.034 17.7411 40.4126 17.9527 40.8788C18.1643 41.345 18.2417 41.8557 18.1847 42.411C18.1278 42.9663 17.9243 43.528 17.5744 44.0962Z" fill="#154A7D"/>
<path d="M22.6297 35.5348C22.165 36.0494 21.6419 36.4411 21.0604 36.7101C20.4847 36.9725 19.8815 37.1168 19.2508 37.1428C18.6259 37.1623 18.007 37.0588 17.3941 36.8323C16.7812 36.6058 16.2078 36.2515 15.674 35.7694C15.1401 35.2872 14.7265 34.756 14.4331 34.1758C14.1391 33.5833 13.9733 32.9781 13.9357 32.3602C13.8975 31.7302 13.9858 31.1151 14.2007 30.5151C14.4092 29.9093 14.7457 29.3491 15.2104 28.8345C15.6751 28.32 16.1773 27.9385 16.7169 27.6901C17.2623 27.4353 17.8075 27.2971 18.3526 27.2755C18.8911 27.248 19.3861 27.3272 19.8373 27.5128L19.3243 29.1865C18.8421 28.9963 18.34 28.9574 17.818 29.0699C17.2896 29.1766 16.8192 29.4583 16.4068 29.9149C16.0002 30.3652 15.7462 30.8598 15.6447 31.3988C15.5491 31.9314 15.6007 32.4626 15.7995 32.9925C16.0041 33.5159 16.3573 34.0042 16.859 34.4572C17.3607 34.9103 17.8855 35.2149 18.4334 35.3711C18.9807 35.5151 19.5144 35.5124 20.0346 35.3632C20.5605 35.2076 21.0268 34.9047 21.4334 34.4544C21.8458 33.9977 22.0814 33.5041 22.1403 32.9733C22.1928 32.4368 22.0999 31.9384 21.8617 31.478L23.4746 30.7976C23.7051 31.2277 23.8373 31.7149 23.8712 32.2593C23.8986 32.7979 23.8133 33.3514 23.6152 33.9199C23.4229 34.482 23.0944 35.0203 22.6297 35.5348Z" fill="#154A7D"/>
<path d="M26.2649 30.2906L20.0935 22.8265L22.8687 20.5319C23.3764 20.1122 23.9012 19.8357 24.4432 19.7024C24.9864 19.5569 25.5146 19.5701 26.0277 19.7418C26.5352 19.9069 26.9961 20.2399 27.4103 20.7409C27.8356 21.2552 28.0737 21.7949 28.1248 22.3599C28.1825 22.9194 28.0762 23.4571 27.8056 23.9732L31.9957 25.5524L30.4528 26.828L25.9105 25.0678L27.223 24.8598L25.3494 26.4088L27.6274 29.1641L26.2649 30.2906ZM24.3554 25.2066L25.7881 24.022C26.0352 23.8177 26.2103 23.5942 26.3133 23.3516C26.4108 23.1023 26.4379 22.8494 26.3945 22.5929C26.3511 22.3364 26.2355 22.0946 26.0477 21.8675C25.8545 21.6337 25.6387 21.4747 25.4004 21.3906C25.1567 21.2998 24.9059 21.2822 24.6483 21.3378C24.3851 21.3867 24.1299 21.5133 23.8828 21.7176L22.4501 22.9022L24.3554 25.2066Z" fill="#154A7D"/>
<path d="M36.4774 21.8121C35.8577 22.1599 35.218 22.3749 34.5584 22.4569C33.8988 22.5389 33.2585 22.4958 32.6373 22.3277C32.0162 22.1595 31.4438 21.8745 30.9201 21.4728C30.3998 21.0592 29.9657 20.5426 29.6178 19.9228C29.2657 19.2956 29.0508 18.6559 28.973 18.0039C28.8953 17.3518 28.9464 16.7169 29.1263 16.0991C29.3063 15.4812 29.6052 14.9159 30.023 14.4031C30.4366 13.8828 30.957 13.4466 31.5842 13.0945C32.2115 12.7424 32.855 12.5253 33.5146 12.4433C34.1742 12.3613 34.8145 12.4044 35.4357 12.5726C36.0526 12.7332 36.6191 13.0165 37.1352 13.4225C37.6588 13.8242 38.0967 14.3388 38.4488 14.966C38.7967 15.5858 39.0078 16.2275 39.0823 16.8914C39.1525 17.5477 39.0976 18.1847 38.9176 18.8025C38.7377 19.4204 38.4409 19.9895 38.0273 20.5098C37.6213 21.0259 37.1047 21.46 36.4774 21.8121ZM35.6884 20.4064C36.1041 20.1731 36.4454 19.8871 36.7125 19.5483C36.9753 19.2021 37.1609 18.8245 37.2694 18.4158C37.3855 18.0028 37.4097 17.5768 37.3421 17.1376C37.2821 16.6943 37.1333 16.261 36.8957 15.8378C36.6582 15.4146 36.3679 15.0656 36.025 14.791C35.6853 14.5046 35.309 14.3034 34.896 14.1874C34.4863 14.0595 34.0674 14.0214 33.6391 14.0729C33.2109 14.1244 32.7889 14.2669 32.3733 14.5002C31.9652 14.7293 31.6276 15.0132 31.3605 15.3519C31.0935 15.6906 30.9041 16.0702 30.7923 16.4908C30.6838 16.8995 30.6595 17.3256 30.7196 17.7689C30.7753 18.2047 30.922 18.6343 31.1596 19.0575C31.3971 19.4807 31.6895 19.8334 32.0367 20.1156C32.3839 20.3977 32.7602 20.5989 33.1657 20.7192C33.5787 20.8353 34.0014 20.8713 34.4339 20.8273C34.8621 20.7758 35.2803 20.6355 35.6884 20.4064Z" fill="#154A7D"/>
<path d="M41.7929 18.2017L38.0534 9.26774L39.6843 8.58509L42.8214 16.08L46.6468 14.4788L47.2492 15.9179L41.7929 18.2017Z" fill="#154A7D"/>
<path d="M48.0724 15.1558L45.3977 5.84748L47.097 5.35923L49.3408 13.1683L53.3265 12.023L53.7573 13.5223L48.0724 15.1558Z" fill="#154A7D"/>
<path d="M57.979 11.5628L57.4933 1.88998L60.6484 1.73158C61.6697 1.6803 62.5674 1.84349 63.3413 2.22116C64.1234 2.58974 64.7405 3.12714 65.1925 3.83337C65.644 4.53093 65.8937 5.35579 65.9415 6.30792C65.9889 7.2514 65.8233 8.10144 65.4447 8.85804C65.0658 9.60598 64.5059 10.2068 63.765 10.6605C63.0324 11.1052 62.1554 11.3531 61.134 11.4044L57.979 11.5628ZM59.6665 9.91611L61.0947 9.8444C61.7526 9.81138 62.3128 9.64875 62.7754 9.35652C63.2462 9.05519 63.6036 8.65544 63.8476 8.15724C64.0912 7.65039 64.1962 7.06372 64.1627 6.39723C64.1288 5.72208 63.9656 5.14888 63.6729 4.67762C63.3802 4.20637 62.9848 3.84875 62.4866 3.60476C61.9971 3.36033 61.4234 3.25463 60.7655 3.28766L59.3373 3.35937L59.6665 9.91611Z" fill="#154A7D"/>
<path d="M72.5158 10.8145C71.8112 10.7216 71.1703 10.5104 70.5931 10.1809C70.0159 9.85132 69.529 9.43314 69.1325 8.92633C68.7359 8.41952 68.4484 7.84841 68.2699 7.21297C68.1011 6.57008 68.0631 5.89635 68.1559 5.19177C68.2499 4.4786 68.4611 3.8377 68.7895 3.26906C69.1179 2.70042 69.5393 2.2227 70.0535 1.83589C70.5678 1.44909 71.1458 1.17558 71.7876 1.01537C72.4305 0.846569 73.1085 0.809149 73.8217 0.903112C74.5348 0.997074 75.18 1.20883 75.7573 1.53839C76.3345 1.86795 76.8214 2.28613 77.2179 2.79294C77.6156 3.29115 77.8994 3.85741 78.0693 4.4917C78.2478 5.12714 78.2901 5.80144 78.1961 6.51461C78.1033 7.21918 77.8878 7.85952 77.5497 8.43562C77.2127 9.00313 76.787 9.48028 76.2727 9.86709C75.7585 10.2539 75.1799 10.5317 74.537 10.7005C73.9027 10.8704 73.229 10.9084 72.5158 10.8145ZM72.7264 9.21627C73.199 9.27853 73.6436 9.25407 74.0604 9.14289C74.4783 9.02312 74.8531 8.83211 75.1849 8.56987C75.5252 8.30876 75.7999 7.98217 76.0089 7.59012C76.2265 7.19919 76.367 6.76314 76.4304 6.28196C76.4938 5.80079 76.4705 5.34753 76.3604 4.92217C76.2601 4.48936 76.0794 4.10277 75.8183 3.76242C75.5669 3.4146 75.2543 3.13302 74.8806 2.91769C74.5068 2.70236 74.0837 2.56356 73.6111 2.5013C73.1471 2.44017 72.7067 2.46519 72.29 2.57637C71.8732 2.68755 71.4941 2.87799 71.1526 3.1477C70.8208 3.40994 70.5461 3.73653 70.3286 4.12745C70.1121 4.50979 69.9722 4.94154 69.9088 5.42272C69.8454 5.90389 69.8681 6.36145 69.977 6.7954C70.086 7.22934 70.2667 7.61593 70.5192 7.95515C70.7803 8.29551 71.0972 8.57765 71.4698 8.80157C71.8435 9.0169 72.2624 9.15514 72.7264 9.21627Z" fill="#154A7D"/>
<path d="M80.3904 10.3743L81.396 0.39694L83.1705 1.07038L82.1497 9.51246L81.6878 9.33718L86.6101 2.37575L88.3238 3.02613L87.3759 11.4959L86.9141 11.3206L91.7513 4.32689L93.5258 5.00033L87.6586 13.1327L85.7625 12.4131L86.6077 4.14074L87.1425 4.34369L82.2864 11.0939L80.3904 10.3743Z" fill="#154A7D"/>
<path d="M92.3533 13.8209L97.371 5.53714L98.5497 6.25107L99.3907 15.1503L98.7051 14.9022L102.497 8.64208L104.009 9.55807L98.9915 17.8419L97.8017 17.1212L97.0543 8.2179L97.6844 8.43235L93.8655 14.7369L92.3533 13.8209Z" fill="#154A7D"/>
<path d="M107.788 23.57C107.341 23.1477 107.002 22.6732 106.772 22.1465C106.548 21.6257 106.435 21.0895 106.431 20.5379C106.439 19.9858 106.565 19.4549 106.808 18.9451L108.313 19.4899C108.103 20.054 108.048 20.6043 108.15 21.1408C108.257 21.6711 108.513 22.1265 108.916 22.5072C109.143 22.7213 109.371 22.871 109.6 22.9563C109.842 23.0412 110.066 23.0623 110.274 23.0195C110.487 22.9826 110.677 22.8759 110.844 22.6994C111.04 22.4914 111.137 22.2617 111.136 22.0104C111.147 21.7587 111.066 21.4791 110.891 21.1715L109.949 19.4608C109.562 18.7731 109.389 18.1282 109.433 17.5261C109.477 16.9241 109.716 16.3929 110.15 15.9327C110.531 15.5293 110.965 15.2653 111.451 15.1408C111.945 15.0222 112.448 15.0444 112.962 15.2073C113.487 15.3698 113.98 15.6681 114.441 16.1023C114.863 16.5008 115.179 16.9422 115.39 17.4265C115.606 17.9046 115.715 18.3949 115.717 18.8976C115.732 19.3999 115.636 19.887 115.429 20.359L113.924 19.8326C114.118 19.3487 114.166 18.8814 114.067 18.4306C113.974 17.9735 113.745 17.5725 113.379 17.2275C113.165 17.0253 112.94 16.8847 112.705 16.8057C112.475 16.7204 112.251 16.6993 112.031 16.7425C111.824 16.7853 111.637 16.895 111.471 17.0715C111.286 17.2669 111.186 17.4997 111.169 17.77C111.159 18.0339 111.244 18.3288 111.425 18.6546L112.337 20.2834C112.725 20.9955 112.907 21.6432 112.881 22.2264C112.861 22.8155 112.628 23.3465 112.182 23.8192C111.801 24.2227 111.361 24.4807 110.862 24.5933C110.362 24.7059 109.847 24.678 109.314 24.5096C108.782 24.3411 108.274 24.0279 107.788 23.57Z" fill="#154A7D"/>
<path d="M114.909 29.9887C114.497 29.4311 114.217 28.8405 114.069 28.2172C113.926 27.6008 113.905 26.9809 114.005 26.3576C114.11 25.7413 114.334 25.1553 114.678 24.5997C115.022 24.0441 115.483 23.5526 116.062 23.1252C116.64 22.6978 117.243 22.398 117.87 22.2258C118.509 22.0554 119.135 22.0131 119.748 22.0991C120.373 22.1869 120.959 22.3957 121.504 22.7255C122.056 23.0502 122.538 23.4914 122.95 24.0491C123.362 24.6068 123.636 25.1748 123.773 25.753C123.914 26.3382 123.941 26.9 123.854 27.4384C123.774 27.9717 123.598 28.441 123.326 28.8464L121.788 28.0109C122.07 27.5762 122.208 27.0919 122.201 26.5579C122.202 26.0188 122.019 25.5018 121.654 25.0069C121.293 24.5189 120.859 24.1717 120.351 23.9651C119.848 23.7656 119.317 23.7106 118.758 23.8001C118.205 23.8966 117.656 24.1457 117.112 24.5473C116.568 24.9489 116.166 25.4027 115.904 25.9087C115.654 26.4165 115.55 26.9401 115.593 27.4795C115.641 28.0258 115.845 28.543 116.206 29.031C116.571 29.5259 117.008 29.855 117.517 30.0182C118.032 30.1762 118.539 30.1843 119.038 30.0423L119.384 31.7583C118.917 31.8987 118.413 31.9315 117.873 31.8564C117.339 31.7763 116.814 31.5826 116.296 31.2755C115.783 30.9754 115.321 30.5464 114.909 29.9887Z" fill="#154A7D"/>
<path d="M119.396 34.6769L127.945 30.1247L129.637 33.3032C129.947 33.8845 130.113 34.4541 130.135 35.0118C130.168 35.5732 130.05 36.088 129.779 36.5563C129.516 37.0206 129.097 37.4055 128.523 37.711C127.934 38.0247 127.358 38.1499 126.794 38.0869C126.234 38.0315 125.729 37.8196 125.277 37.4512L122.891 41.2403L121.95 39.4733L124.584 35.3753L124.525 36.7028L123.383 34.5571L120.227 36.2374L119.396 34.6769ZM124.76 33.8239L125.633 35.4647C125.784 35.7478 125.968 35.964 126.185 36.1136C126.41 36.259 126.652 36.3361 126.912 36.345C127.172 36.3538 127.432 36.289 127.692 36.1505C127.96 36.0079 128.159 35.8283 128.289 35.6117C128.427 35.3911 128.494 35.1489 128.491 34.8854C128.496 34.6177 128.423 34.3424 128.272 34.0594L127.399 32.4185L124.76 33.8239Z" fill="#154A7D"/>
<path d="M125.745 46.5959C125.531 45.9183 125.45 45.2483 125.505 44.5858C125.559 43.9233 125.731 43.3052 126.023 42.7313C126.314 42.1575 126.709 41.6552 127.209 41.2243C127.72 40.7992 128.315 40.4795 128.992 40.2652C129.678 40.0483 130.348 39.9682 131.002 40.025C131.657 40.0817 132.268 40.2611 132.836 40.5632C133.404 40.8653 133.897 41.2731 134.314 41.7866C134.739 42.2975 135.06 42.8959 135.277 43.5818C135.493 44.2676 135.575 44.9418 135.521 45.6043C135.467 46.2668 135.294 46.8849 135.003 47.4587C134.72 48.03 134.327 48.5269 133.824 48.9494C133.324 49.3802 132.731 49.7041 132.046 49.9209C131.368 50.1352 130.697 50.2112 130.031 50.1488C129.375 50.0838 128.762 49.9003 128.194 49.5982C127.626 49.2961 127.129 48.8896 126.704 48.3787C126.281 47.876 125.962 47.2818 125.745 46.5959ZM127.282 46.1099C127.426 46.5644 127.636 46.9568 127.913 47.2873C128.199 47.6152 128.53 47.8738 128.908 48.0633C129.289 48.2611 129.701 48.3716 130.145 48.3949C130.591 48.4265 131.046 48.3692 131.509 48.2228C131.971 48.0765 132.372 47.8634 132.711 47.5836C133.06 47.3094 133.334 46.982 133.532 46.6013C133.74 46.2263 133.863 45.8239 133.9 45.3942C133.937 44.9644 133.883 44.5223 133.74 44.0678C133.599 43.6216 133.389 43.2332 133.112 42.9028C132.835 42.5723 132.502 42.3095 132.113 42.1143C131.735 41.9248 131.323 41.8143 130.876 41.7827C130.438 41.7485 129.988 41.8046 129.525 41.9509C129.063 42.0973 128.658 42.3116 128.311 42.5941C127.964 42.8765 127.69 43.2039 127.49 43.5763C127.292 43.957 127.17 44.3635 127.125 44.7959C127.089 45.2257 127.141 45.6636 127.282 46.1099Z" fill="#154A7D"/>
<path d="M128.162 52.4632L137.668 50.6123L138.006 52.3477L130.031 53.9005L130.823 57.9711L129.292 58.2692L128.162 52.4632Z" fill="#154A7D"/>
<path d="M129.847 59.1736L139.504 58.4272L139.64 60.19L131.539 60.8162L131.859 64.9508L130.303 65.071L129.847 59.1736Z" fill="#154A7D"/>
</svg>
