<svg width="950" height="175" viewBox="0 0 950 175" fill="none" xmlns="http://www.w3.org/2000/svg">
<g filter="url(#filter0_d_6331_2376)">
<path d="M22.8221 142.617L20.7134 132.16C22.3356 131.673 24.3533 131.032 26.7664 130.237C29.1795 129.442 31.7362 128.605 34.4365 127.728L38.6514 106.479L29.0954 106.972L31.1659 96.5007L40.7219 96.0074L44.1725 78.6219L33.9124 79.1515L35.9314 68.9845L66.5105 67.4059L64.4915 77.5729L55.4385 78.0403L51.9879 95.4258L60.2362 95L60.9378 91.4418L121.895 88.2951L120.178 96.9371L59.9253 100.048L58.8587 105.436L49.9062 105.898L46.4213 123.487C48.5662 122.705 50.5893 121.952 52.5012 121.216C54.4019 120.481 56.039 119.848 57.4119 119.308L55.2959 129.983C53.4674 130.815 51.1652 131.806 48.3894 132.956C45.6023 134.106 42.6494 135.298 39.5193 136.533C36.3892 137.768 33.3552 138.909 30.4288 139.965C27.4913 141.023 24.971 141.913 22.8338 142.627L22.8221 142.617ZM68.9742 154.423L73.0637 133.784C68.3153 137.316 63.3183 140.593 58.0728 143.615C52.8273 146.636 47.9565 149.101 43.4605 151.01C43.3442 150.278 43.06 149.332 42.6313 148.191C42.1909 147.04 41.7057 145.891 41.1759 144.744C40.6348 143.598 40.1311 142.741 39.6418 142.162C42.7787 141.061 46.2991 139.571 50.1804 137.694C54.0729 135.815 57.9545 133.726 61.8357 131.412C65.7058 129.099 69.2494 126.758 72.4432 124.368L60.1713 125.002L64.4832 103.245L112.967 100.742L108.655 122.499L106.543 122.608L112.836 129.025C111.577 130.029 110.08 131.202 108.355 132.521C106.63 133.851 104.915 135.136 103.219 136.364C105.098 137.609 107.04 138.75 109.066 139.786C111.08 140.822 113.144 141.722 115.257 142.485C113.904 143.628 112.378 145.116 110.691 146.947C109.003 148.778 107.66 150.324 106.683 151.582C102.675 149.709 98.7021 147.208 94.7758 144.09C90.8495 140.972 87.4249 137.37 84.5143 133.305L80.4419 153.842L68.9748 154.434L68.9742 154.423ZM64.9074 88.0168L69.556 64.5317L124.276 61.7069L119.628 85.192L64.9074 88.0168ZM72.5973 116.5L99.354 115.119L100.518 109.222L73.7609 110.604L72.5973 116.5ZM76.1269 79.5886L82.3635 79.2667L83.8577 71.743L77.6212 72.065L76.1269 79.5886ZM96.1335 130.883C97.7143 129.593 99.3346 128.202 100.994 126.707C102.654 125.213 104.131 123.862 105.436 122.654L89.4422 123.48C90.4501 124.769 91.5021 126.045 92.6201 127.296C93.7268 128.547 94.909 129.738 96.1453 130.893L96.1335 130.883ZM90.7124 78.8357L97.2506 78.4982L98.7449 70.9745L92.2066 71.3121L90.7124 78.8357ZM105.298 78.0827L111.534 77.7608L113.029 70.2372L106.792 70.5591L105.298 78.0827Z" fill="white"/>
<path d="M123.572 133.592L123.031 122.249C124.713 121.826 126.581 121.328 128.658 120.751C130.724 120.174 132.874 119.493 135.086 118.708L140.704 90.3429L130.243 90.8829L132.262 80.7159L142.723 80.1759L146.687 60.1475L157.853 59.5711L153.889 79.5995L163.445 79.1062L162.76 82.5629L175.837 81.8878C175.741 80.6852 175.603 79.3059 175.421 77.7388C175.228 76.1722 175.058 74.8281 174.875 73.6859L166.325 74.1273L168.139 64.9771L188.559 63.923L190.133 55.9927L202.304 55.3644L200.73 63.2947L222.96 62.1471L221.146 71.2973L211.289 71.8062C210.74 72.9078 210.038 74.2858 209.171 75.9406C208.315 77.5948 207.561 79.0426 206.919 80.2833L222.409 79.4836L220.533 88.9389L160.079 92.0597L160.621 89.3148L151.87 89.7665L146.97 114.472C149.268 113.616 151.388 112.779 153.341 111.974C155.294 111.169 156.971 110.434 158.359 109.747L156.26 120.321C154.472 121.285 152.197 122.376 149.436 123.591C146.674 124.807 143.736 126.055 140.63 127.322C137.524 128.589 134.469 129.776 131.467 130.87C128.464 131.964 125.832 132.871 123.561 133.592L123.572 133.592ZM139.563 151.383C139.446 149.98 139.222 148.247 138.903 146.184C138.583 144.121 138.115 142.434 137.521 141.123C145.495 140.376 151.88 138.805 156.676 136.411C161.46 134.017 165.131 130.44 167.664 125.68L159.014 126.127L165.094 95.4234L213.276 92.9361L207.196 123.64L195.024 124.268L193.131 133.825C192.952 134.706 193.052 135.327 193.417 135.677C193.782 136.027 194.664 136.172 196.072 136.099L200.498 135.871C201.906 135.798 203.037 135.561 203.878 135.137C204.72 134.725 205.46 133.87 206.088 132.563C206.715 131.256 207.343 129.312 207.994 126.729C208.719 127.094 209.669 127.481 210.856 127.89C212.031 128.299 213.26 128.671 214.511 129.009C215.772 129.347 216.84 129.627 217.725 129.849C216.251 134.286 214.757 137.695 213.256 140.098C211.755 142.49 210.048 144.155 208.135 145.092C206.222 146.029 203.796 146.568 200.845 146.721L189.278 147.318C185.656 147.505 183.203 147.095 181.908 146.088C180.612 145.082 180.226 143.257 180.751 140.613L183.871 124.855L179.043 125.104C176.719 130.457 173.798 134.879 170.292 138.38C166.775 141.883 162.504 144.675 157.489 146.745C152.464 148.816 146.503 150.365 139.597 151.392L139.563 151.383ZM171.863 118.017L197.312 116.703L198.156 112.433L172.707 113.747L171.863 118.017ZM174.093 106.732L199.543 105.419L200.387 101.149L174.938 102.462L174.093 106.732ZM187.404 81.2907L195.351 80.8804C195.993 79.6397 196.725 78.1932 197.559 76.5401C198.381 74.8876 199.038 73.5119 199.52 72.4137L186.544 73.0836C186.733 74.1472 186.903 75.4801 187.042 77.083C187.191 78.6853 187.309 80.0881 187.404 81.2907Z" fill="white"/>
<path d="M273.583 141.244C268.084 141.528 263.229 141.242 259.016 140.386C254.803 139.53 251.662 137.959 249.595 135.695C247.517 133.421 246.875 130.313 247.658 126.381C248.308 123.127 249.856 120.118 252.334 117.329C254.813 114.551 257.975 111.973 261.83 109.594C265.686 107.214 269.975 105.003 274.699 102.936L274.858 102.123C275.33 99.7508 275.084 98.0305 274.134 96.9838C273.183 95.926 271.81 95.3819 270.025 95.3287C266.975 95.2849 263.946 95.8773 260.917 97.1071C257.887 98.3368 254.713 100.446 251.393 103.435C250.428 104.29 249.185 105.383 247.662 106.703C246.139 108.022 244.614 109.32 243.1 110.605C241.587 111.891 240.275 112.965 239.176 113.827L232.159 105.535C237.466 102.175 242.675 98.0152 247.775 93.0559C252.876 88.0966 257.391 82.8657 261.343 77.3619C257.561 77.6913 254.113 77.9811 251.011 78.2419C247.909 78.5026 245.586 78.6449 244.062 78.6565L245.981 66.9852C248.216 67.0711 251.373 67.0088 255.43 66.7993C259.487 66.5899 263.919 66.2605 268.714 65.8116C271.146 61.2585 272.843 57.0115 273.828 53.0698L285.684 53.0615C284.772 56.6641 283.363 60.4265 281.459 64.3487C286.501 63.6859 291.206 62.9958 295.561 62.2678C299.916 61.5399 303.307 60.7834 305.72 59.988L304.182 71.2371C302.233 71.6732 299.714 72.161 296.626 72.6894C293.538 73.2178 290.125 73.7517 286.409 74.2678C282.682 74.7957 278.886 75.2935 275.01 75.7619C273.766 77.7045 272.4 79.6758 270.9 81.6652C269.411 83.654 267.885 85.5664 266.331 87.3797C269.227 86.1568 272.049 85.4744 274.799 85.3325C278.755 85.1283 281.882 86.0067 284.18 87.9677C286.478 89.9287 287.492 93.2977 287.201 98.0758C291.214 96.594 295.279 95.2325 299.416 93.968C303.543 92.7151 307.54 91.5584 311.406 90.4755L312.613 101.482C307.786 102.402 303.056 103.474 298.434 104.685C293.813 105.897 289.476 107.205 285.403 108.623L282.728 122.144L270.858 122.757L272.627 113.811C268.954 115.61 265.933 117.432 263.584 119.253C261.235 121.085 259.9 122.786 259.588 124.345C259.136 126.65 260.19 128.183 262.751 128.956C265.313 129.73 269.415 129.965 275.048 129.674C277.328 129.557 279.924 129.266 282.837 128.814C285.75 128.362 288.679 127.808 291.627 127.153C294.574 126.497 297.183 125.815 299.454 125.094C299.142 125.982 298.771 127.265 298.341 128.919C297.911 130.585 297.537 132.237 297.218 133.863C296.898 135.49 296.692 136.708 296.588 137.518C293.143 138.501 289.329 139.313 285.15 139.976C280.97 140.628 277.103 141.051 273.549 141.235L273.583 141.244Z" fill="white"/>
<path d="M375.441 138.703C375.039 138.723 374.121 138.737 372.698 138.744C371.264 138.751 369.819 138.769 368.353 138.811C366.887 138.854 365.881 138.894 365.344 138.922C365.509 137.773 365.595 136.405 365.604 134.828C365.623 133.25 365.61 131.685 365.587 130.155C365.563 128.613 365.434 127.412 365.21 126.552L374.464 126.074C375.872 126.001 376.945 125.711 377.669 125.204C378.405 124.697 378.906 123.765 379.172 122.41L384.328 96.3826L328.803 99.2489L331.062 87.862L386.587 84.9956L389.387 70.8637L401.86 70.2198L399.06 84.3517L422.397 83.147L420.138 94.534L396.801 95.7387L390.579 127.154C389.822 130.95 388.208 133.773 385.714 135.601C383.22 137.44 379.8 138.478 375.441 138.703ZM334.379 82.6593L339.136 58.6655L375.348 56.7961L377.498 45.9179L391.078 45.2169L388.928 56.0951L425.542 54.2049L420.882 77.6906L408.711 78.3189L411.255 65.5085L349.392 68.702L346.752 82.0206L334.379 82.6593ZM353.039 125.671C352.492 123.753 351.745 121.656 350.799 119.402C349.853 117.136 348.819 114.909 347.698 112.719C346.576 110.53 345.435 108.621 344.298 107.002L356.368 99.8385C357.523 101.389 358.694 103.229 359.901 105.336C361.109 107.454 362.24 109.609 363.306 111.802C364.36 113.995 365.223 115.94 365.882 117.651C364.711 118.181 363.305 118.946 361.652 119.926C360 120.917 358.404 121.928 356.877 122.946C355.349 123.964 354.074 124.868 353.05 125.659L353.039 125.671Z" fill="white"/>
<path d="M470.26 128.978C462.213 129.393 456.58 128.152 453.372 125.277C450.163 122.39 448.998 118.704 449.888 114.231C450.466 111.316 451.659 108.806 453.466 106.7C455.274 104.594 457.429 102.929 459.932 101.693C462.434 100.457 464.988 99.7771 467.603 99.642C472.565 99.3859 476.266 100.738 478.694 103.698C481.121 106.659 482.324 110.421 482.28 114.985C484.993 113.704 487.362 111.838 489.409 109.384C491.457 106.931 492.809 104.043 493.467 100.722C494.026 97.8755 493.863 95.3682 492.967 93.2007C492.07 91.0331 490.526 89.3462 488.347 88.1506C486.156 86.9555 483.462 86.4461 480.243 86.6122C475.75 86.8442 471.732 87.5883 468.2 88.844C464.667 90.0997 461.324 91.983 458.17 94.4938C456.75 95.6405 454.876 97.1125 452.56 98.9092C450.243 100.706 448.086 102.327 446.076 103.772L439.596 95.2514C442.959 93.3335 446.623 90.9306 450.587 88.0426C454.539 85.1551 458.588 81.9608 462.744 78.4591C466.889 74.9579 470.894 71.3521 474.747 67.6312C478.601 63.9103 482.111 60.263 485.276 56.6671C482.259 57.4937 478.995 58.2995 475.483 59.0846C471.971 59.8697 468.622 60.5457 465.423 61.1133C462.225 61.6809 459.534 62.0882 457.362 62.3345L457.442 50.8587C459.226 50.9008 461.494 50.7725 464.246 50.4516C466.998 50.1418 469.97 49.7536 473.184 49.2858C476.399 48.818 479.542 48.2755 482.624 47.6356C485.696 47.0075 488.487 46.3714 490.965 45.7404C493.442 45.1093 495.305 44.4989 496.562 43.8861L504.406 49.5189C501.228 54.1776 497.146 59.1067 492.169 64.2944C487.192 69.4821 481.961 74.5041 476.495 79.3369C477.741 78.7359 479.106 78.2517 480.566 77.8745C482.037 77.4967 483.437 77.279 484.779 77.2098C490.076 76.9363 494.465 77.716 497.955 79.5484C501.445 81.3808 503.914 84.0598 505.372 87.5624C506.831 91.0761 507.091 95.2444 506.129 100.057C505.126 105.14 502.946 109.815 499.614 114.079C496.282 118.343 492.09 121.813 487.051 124.488C482.012 127.164 476.396 128.661 470.227 128.979L470.26 128.978ZM471.166 117.862C471.336 115.304 470.963 113.277 470.034 111.782C469.105 110.287 467.635 109.591 465.623 109.695C464.55 109.751 463.591 110.068 462.747 110.649C461.903 111.229 461.375 112.061 461.162 113.146C460.876 114.569 461.395 115.716 462.718 116.587C464.04 117.458 466.46 117.87 469.987 117.822C470.181 117.879 470.372 117.903 470.573 117.892L471.177 117.861L471.166 117.862Z" fill="white"/>
<path d="M541.959 127.893C541.111 125.79 539.885 123.539 538.271 121.14C536.657 118.741 534.914 116.472 533.055 114.309C531.195 112.158 529.367 110.385 527.581 109.001L536.612 101.592C537.949 102.529 539.368 103.753 540.868 105.241C542.357 106.74 543.874 108.339 545.396 110.038C546.919 111.737 548.293 113.4 549.542 115.012C550.779 116.625 551.783 118.05 552.53 119.286L541.97 127.881L541.959 127.893Z" fill="white"/>
<path d="M613.688 126.102L615.964 114.613C613.805 115.127 611.225 115.73 608.235 116.421C605.245 117.112 602.189 117.829 599.055 118.55C595.921 119.282 592.963 119.949 590.194 120.573C587.413 121.186 585.139 121.639 583.35 121.932L583.412 112.067C584.579 111.873 585.967 111.634 587.589 111.349C589.199 111.064 590.943 110.773 592.788 110.477L599.056 78.8575L590.104 79.3197L591.901 70.271L683.738 65.5301L681.942 74.5788L634.766 77.0141L627.208 115.14C630.257 113.842 633.217 112.348 636.11 110.655C639.004 108.963 641.743 107.111 644.329 105.099C642.923 102.823 641.753 100.357 640.82 97.6882C639.886 95.0194 639.357 92.1509 639.242 89.0597L634.716 89.2934L636.513 80.2447L672.725 78.3753L675.925 81.3296C673.901 85.5263 671.453 89.5548 668.605 93.4363C665.745 97.3071 662.608 101.013 659.182 104.533C661.54 106.357 664.086 107.925 666.82 109.215C669.543 110.517 672.272 111.505 674.996 112.17C673.71 113.31 672.28 114.915 670.705 116.964C669.13 119.025 667.951 120.707 667.167 122.022C664.336 121.229 661.46 120.013 658.53 118.387C655.599 116.76 652.884 114.742 650.372 112.323C644.539 116.985 638.329 120.861 631.742 123.951C631.07 122.644 630.342 121.139 629.548 119.436C628.754 117.732 627.947 116.432 627.139 115.535L625.166 125.498L613.698 126.09L613.688 126.102ZM604.687 108.252C607.095 107.792 609.426 107.37 611.659 106.987C613.892 106.603 615.912 106.23 617.709 105.869L618.518 101.802L605.844 102.457L604.698 108.252L604.687 108.252ZM607.316 94.9342L619.99 94.2799L620.914 89.6033L608.24 90.2576L607.316 94.9342ZM607.271 66.0562L613.317 35.5556L675.984 32.3206L669.938 62.8212L607.271 66.0562ZM609.717 82.8355L622.392 82.1812L623.298 77.6061L610.624 78.2604L609.717 82.8355ZM620.183 57.6413L660.218 55.5746L660.982 51.7112L620.948 53.7779L620.183 57.6413ZM622.425 46.3558L662.459 44.2891L663.161 40.7309L623.126 42.7976L622.425 46.3558ZM652.902 97.5117C654.469 95.9549 655.912 94.3711 657.229 92.7601C658.547 91.1491 659.719 89.5456 660.769 87.9485L649.503 88.53C650.052 91.7889 651.181 94.783 652.902 97.5117Z" fill="white"/>
<path d="M687.545 121.685L699.546 61.0915L736.865 59.165L726.826 109.796C725.511 116.438 720.863 119.966 712.883 120.377L706.948 120.684C707.086 119.67 707.158 118.459 707.175 117.05C707.192 115.64 707.187 114.242 707.161 112.88C707.135 111.506 707.001 110.428 706.759 109.636L712.09 109.36C713.431 109.291 714.427 109.039 715.076 108.603C715.726 108.166 716.175 107.305 716.433 106.017L717.819 99.0019L703.234 99.7548L699.002 121.105L687.535 121.697L687.545 121.685ZM694.501 55.4149L696.572 44.9433L720.915 43.6866C720.367 41.7694 719.718 39.8239 718.988 37.849C718.248 35.8747 717.534 34.4356 716.86 33.5312L728.756 27.7851C729.751 29.4779 730.789 31.7724 731.868 34.6684C732.948 37.5644 733.764 40.3399 734.304 42.9954L747.783 42.2996C749.082 40.7567 750.468 38.9632 751.942 36.9081C753.416 34.853 754.825 32.8348 756.18 30.853C757.534 28.8711 758.57 27.2299 759.297 25.9066L771.149 28.4143C770.065 30.2144 768.616 32.313 766.812 34.7205C765.009 37.1281 763.189 39.4247 761.374 41.598L788.13 40.2168L786.06 50.6884L694.524 55.4137L694.501 55.4149ZM704.933 91.2032L719.518 90.4502L720.807 83.9435L706.222 84.6964L704.933 91.2032ZM707.893 76.258L722.479 75.505L723.785 68.8968L709.199 69.6497L707.893 76.258ZM736.195 101.765L744.454 60.0814L756.122 59.4791L747.863 101.163L736.195 101.765ZM745.384 118.7C745.53 117.619 745.621 116.339 745.646 114.862C745.67 113.385 745.662 111.921 745.621 110.481C745.569 109.041 745.443 107.896 745.207 107.025L752.751 106.635C754.093 106.566 755.11 106.301 755.803 105.829C756.496 105.357 756.966 104.483 757.224 103.184L766.407 56.8238L778.075 56.2214L768.003 107.056C766.607 114.104 761.78 117.842 753.531 118.268L745.384 118.689L745.384 118.7Z" fill="white"/>
<path d="M791.068 106.681C789.901 106.205 788.485 105.707 786.834 105.189C785.182 104.67 783.688 104.379 782.373 104.312C783.811 102.427 785.303 100.069 786.86 97.2378C788.418 94.407 789.88 91.4803 791.237 88.4585C792.594 85.4367 793.685 82.697 794.511 80.2393L803.081 81.7088C802.322 84.163 801.257 86.9685 799.874 90.1259C798.479 93.2838 797.023 96.3331 795.471 99.2644C793.93 102.195 792.455 104.664 791.068 106.681ZM797.243 116.224L805.422 74.9465C802.667 75.4241 800.024 75.8848 797.479 76.3069C794.935 76.7401 792.678 77.0802 790.707 77.3162L791.369 66.9173C792.174 66.8757 793.067 66.8184 794.048 66.723C795.03 66.6388 796.056 66.5411 797.148 66.4177C800.135 63.7142 803.595 60.1813 807.516 55.8196C805.649 54.1718 803.565 52.4457 801.277 50.6631C798.976 48.8699 796.79 47.3168 794.728 46.0145L802.049 37.1837C802.513 37.4952 803.024 37.8378 803.592 38.211C804.15 38.5847 804.72 38.9913 805.292 39.4314C806.542 37.8239 807.873 36.0333 809.294 34.048C810.716 32.0627 812.083 30.1137 813.386 28.2016C814.688 26.2896 815.704 24.7053 816.414 23.4723L825.004 26.8527C822.996 29.6398 820.774 32.6057 818.359 35.7492C815.943 38.8927 813.723 41.6907 811.721 44.1421C812.352 44.6462 812.948 45.1298 813.522 45.6144C814.096 46.088 814.635 46.5521 815.14 46.9845C817.636 44.1051 819.903 41.3605 821.953 38.739C824.003 36.1175 825.628 33.9428 826.837 32.192L834.921 36.6049C833.034 39.1174 830.674 42.0456 827.854 45.3666C825.034 48.6987 822.092 52.0707 819.03 55.4824C815.967 58.8941 813.005 62.0771 810.166 65.0412C812.003 64.8122 813.806 64.5738 815.586 64.3142C817.366 64.0546 819.035 63.8231 820.603 63.5968C820.28 62.5401 819.959 61.5504 819.654 60.6269C819.337 59.7041 819.015 58.8822 818.697 58.1606L827.454 53.6835C828.355 55.5153 829.26 57.8501 830.202 60.6862C831.133 63.5228 831.91 66.1997 832.544 68.7162L839.942 31.4037L854.125 30.6716C854.973 29.0848 855.822 27.2856 856.692 25.2616C857.562 23.2377 858.208 21.639 858.641 20.4762L870.188 20.987C869.707 22.0853 868.973 23.5096 867.989 25.2822C867.004 27.0437 866.078 28.6457 865.19 30.1004L886.213 29.0151L878.815 66.3275L860.81 67.257L860.063 71.0188C860.381 72.4112 860.802 73.8318 861.314 75.2813C861.826 76.7307 862.429 78.209 863.123 79.7162C865.226 78.1317 867.379 76.4217 869.561 74.6096C871.753 72.7857 873.583 71.1259 875.075 69.6401L881.063 75.5699C879.268 77.2726 877.1 79.1288 874.582 81.1372C872.063 83.1456 869.603 84.9833 867.212 86.6497C869.008 89.3075 870.985 91.7882 873.155 94.0913C875.325 96.3943 877.475 98.3294 879.618 99.8959C878.849 100.405 877.89 101.148 876.74 102.113C875.58 103.079 874.455 104.087 873.345 105.151C872.234 106.214 871.331 107.166 870.635 108.007C867.855 105.602 865.272 102.671 862.873 99.195C860.476 95.7297 858.383 92.1033 856.618 88.3035L853.55 103.757C852.884 107.146 851.501 109.655 849.421 111.26C847.342 112.877 844.352 113.792 840.462 113.993L834.829 114.283C834.988 112.799 835.087 111.028 835.127 108.98C835.167 106.931 835.038 105.306 834.741 104.113L839.771 103.854C841.112 103.784 842.085 103.533 842.713 103.098C843.34 102.663 843.757 101.837 843.997 100.617L850.504 67.7778L832.499 68.7073C832.661 69.2357 832.798 69.7317 832.901 70.196C833.014 70.6597 833.117 71.1241 833.219 71.5884C831.846 72.1288 830.249 72.871 828.402 73.7937C826.557 74.7275 824.956 75.6375 823.59 76.5131C823.473 75.7812 823.344 75.0052 823.211 74.1735C823.078 73.3418 822.9 72.4901 822.665 71.6301C821.681 71.8821 820.662 72.1248 819.587 72.348C818.511 72.5713 817.39 72.7857 816.223 72.9689L807.759 115.67L797.197 116.215L797.243 116.224ZM822.533 111.195C821.826 110.091 820.849 108.956 819.623 107.778C818.396 106.601 817.116 105.683 815.792 105.002C819.054 102.62 822.014 100.052 824.685 97.2978C823.398 97.7668 822.093 98.3261 820.77 98.9646C819.447 99.6031 818.235 100.225 817.122 100.808C816.879 99.3444 816.63 97.3447 816.365 94.8091C816.099 92.2736 815.874 89.6576 815.679 86.9508C815.483 84.2439 815.376 81.9462 815.346 80.0693L824.459 77.2845C824.549 78.8228 824.701 80.6821 824.903 82.852C825.105 85.0219 825.363 87.2112 825.701 89.4076C826.027 91.6045 826.362 93.5327 826.694 95.1927C830.275 91.184 832.916 87.425 834.607 83.9164L827.364 84.2903L829.195 75.0386L846.195 74.161L848.05 75.3734C845.468 82.014 842.09 88.4273 837.916 94.6134C833.73 100.8 828.603 106.331 822.534 111.206L822.533 111.195ZM845.381 59.7014L869.321 58.4655L870.565 52.1624L846.624 53.3982L845.381 59.7014ZM848.181 45.5695L872.122 44.3336L873.365 38.0305L849.425 39.2663L848.181 45.5695Z" fill="white"/>
<path d="M898.977 109.764C896.294 109.903 893.98 109.363 892.025 108.167C890.08 106.959 888.647 105.255 887.76 103.054C886.862 100.853 886.7 98.3675 887.251 95.5774C887.802 92.7985 888.949 90.2571 890.701 87.9528C892.454 85.6485 894.576 83.7724 897.091 82.3456C899.594 80.9082 902.198 80.1253 904.881 79.9868C907.563 79.8483 909.989 80.3939 911.97 81.6334C913.95 82.8729 915.371 84.5773 916.234 86.7465C917.097 88.9158 917.268 91.3556 916.724 94.0671C916.173 96.8461 915.005 99.4109 913.21 101.751C911.414 104.091 909.27 105.979 906.756 107.417C904.253 108.855 901.648 109.638 898.966 109.776L898.977 109.764ZM900.106 104.071C902.654 103.939 905.001 102.935 907.133 101.047C909.266 99.1593 910.587 96.9667 911.073 94.4483C911.571 91.9404 911.114 89.8173 909.691 88.0794C908.279 86.341 906.299 85.5376 903.751 85.6691C901.202 85.8007 898.957 86.811 896.824 88.6877C894.691 90.5756 893.373 92.8128 892.856 95.3887C892.357 97.8966 892.814 100.009 894.247 101.712C895.668 103.417 897.614 104.2 900.095 104.072L900.106 104.071Z" fill="white"/>
<path d="M137.092 61.1795L122.678 61.7894L120.73 69.8508L137.092 61.1795Z" fill="white"/>
<path d="M119.9 75.4841L121.79 68.6779L129.614 68.2741L119.9 75.4841Z" fill="white"/>
<path d="M129.509 87.969L121.448 88.3181L120.347 92.8249L129.509 87.969Z" fill="white"/>
<path d="M119.882 95.9795L120.941 92.1681L125.322 91.9419L119.882 95.9795Z" fill="white"/>
<path d="M111.894 100.786L123.417 100.191L109.39 110.687L111.894 100.786Z" fill="white"/>
<path d="M110.037 109.536L117.156 109.168L109.553 113.832L110.037 109.536Z" fill="white"/>
<path d="M113.295 142.911L123.239 140.161L106.992 151.063L113.295 142.911Z" fill="white"/>
<path d="M110.254 127.414L116.902 125.953L108.699 132.246L110.254 127.414Z" fill="white"/>
<path d="M155.74 59.6801L166.123 59.1441L155.262 65.8319L155.74 59.6801Z" fill="white"/>
<path d="M155.473 64.703L163.017 64.3135L155.121 69.1711L155.473 64.703Z" fill="white"/>
<path d="M200.181 55.474L209.614 54.9871L199.796 60.1787L200.181 55.474Z" fill="white"/>
<path d="M218.3 62.3877L230.136 61.7767L218.081 67.0614L218.3 62.3877Z" fill="white"/>
<path d="M217.369 79.7438L231.027 79.0387L216.825 86.1338L217.369 79.7438Z" fill="white"/>
<path d="M211.041 93.0515L222.754 92.4469L210.809 99.8615L211.041 93.0515Z" fill="white"/>
<path d="M210.405 98.7642L218.576 98.3425L210.236 103.514L210.405 98.7642Z" fill="white"/>
<path d="M282.345 53.0773L293.533 52.4998L282.675 59.2545L282.345 53.0773Z" fill="white"/>
<path d="M302.539 60.879L312.852 57.6967L303.254 67.1369L302.539 60.879Z" fill="white"/>
<path d="M309.827 90.926L320.052 88.6316L310.454 98.0718L309.827 90.926Z" fill="white"/>
<path d="M297.26 125.777L309.427 121.605L296.591 133.448L297.26 125.777Z" fill="white"/>
<path d="M388.53 45.3484L401.83 44.6618L387.62 51.6008L388.53 45.3484Z" fill="white"/>
<path d="M420.915 54.4438L435.914 53.6695L420.78 64.4242L420.915 54.4438Z" fill="white"/>
<path d="M421.032 69.2972L421.123 62.1703L431.842 61.6169L421.032 69.2972Z" fill="white"/>
<path d="M419.021 83.3213L430.69 82.7189L419.811 89.0722L419.021 83.3213Z" fill="white"/>
<path d="M548.852 122.282L563.25 110.738L545.483 113.891L548.852 122.282Z" fill="white"/>
<path d="M670.396 32.6091L688.044 31.6981L669.558 42.6369L670.396 32.6091Z" fill="white"/>
<path d="M669.778 46.9078L670.413 39.2384L683.914 38.5414L669.778 46.9078Z" fill="white"/>
<path d="M675.613 65.9495L692.009 65.1031L676.585 70.2264L675.613 65.9495Z" fill="white"/>
<path d="M672.69 81.6084L684.927 79.8586L669.74 89.5873L672.69 81.6084Z" fill="white"/>
<path d="M671.493 115.951L681.838 106.852L665.188 109.948L671.493 115.951Z" fill="white"/>
<path d="M669.553 88.1435L678.141 86.9175L667.478 93.7516L669.553 88.1435Z" fill="white"/>
<path d="M767.451 28.6387L780.748 25.7161L765.561 35.4448L767.451 28.6387Z" fill="white"/>
<path d="M781.514 40.5583L796.043 39.8082L784.019 45.6728L781.514 40.5583Z" fill="white"/>
<path d="M774.488 56.4177L789.018 55.6677L773.821 65.2068L774.488 56.4177Z" fill="white"/>
<path d="M774.679 69.4448L775.181 62.9004L786 62.3419L774.679 69.4448Z" fill="white"/>
<path d="M387.736 117.674L402.735 116.9L387.601 127.654L387.736 117.674Z" fill="white"/>
<path d="M387.853 132.527L387.945 125.4L398.663 124.847L387.853 132.527Z" fill="white"/>
<path d="M500.189 98.0828L515.188 97.3085L500.054 108.063L500.189 98.0828Z" fill="white"/>
<path d="M500.306 112.936L500.397 105.809L511.116 105.256L500.306 112.936Z" fill="white"/>
<path d="M765.511 99.1674L780.04 98.4173L764.844 107.956L765.511 99.1674Z" fill="white"/>
<path d="M765.713 112.194L766.204 105.65L777.023 105.092L765.713 112.194Z" fill="white"/>
<path d="M878.289 29.4242L897.434 28.4359L878.905 38.5384L878.289 29.4242Z" fill="white"/>
<path d="M882.36 41.4348L881.965 35.507L894.404 34.8648L882.36 41.4348Z" fill="white"/>
<path d="M877.821 60.9561L887.88 60.4368L878.815 66.3275L877.821 60.9561Z" fill="white"/>
<path d="M867.425 20.8614L875.729 20.4327L868.098 24.5611L867.425 20.8614Z" fill="white"/>
<path d="M877.452 78.7864L887.338 71.6458L876.276 74.453L877.452 78.7864Z" fill="white"/>
<path d="M877.439 101.54L884.134 96.4092L874.075 96.9285L877.439 101.54Z" fill="white"/>
<path d="M911.517 86.118L929.5 85.1896L912.094 94.6752L911.517 86.118Z" fill="white"/>
<path d="M915.349 97.3918L914.972 91.832L926.652 91.229L915.349 97.3918Z" fill="white"/>
</g>
<defs>
<filter id="filter0_d_6331_2376" x="0.713379" y="0.432678" width="948.787" height="174.001" filterUnits="userSpaceOnUse" color-interpolation-filters="sRGB">
<feFlood flood-opacity="0" result="BackgroundImageFix"/>
<feColorMatrix in="SourceAlpha" type="matrix" values="0 0 0 0 0 0 0 0 0 0 0 0 0 0 0 0 0 0 127 0" result="hardAlpha"/>
<feOffset/>
<feGaussianBlur stdDeviation="10"/>
<feComposite in2="hardAlpha" operator="out"/>
<feColorMatrix type="matrix" values="0 0 0 0 0 0 0 0 0 0 0 0 0 0 0 0 0 0 0.4 0"/>
<feBlend mode="normal" in2="BackgroundImageFix" result="effect1_dropShadow_6331_2376"/>
<feBlend mode="normal" in="SourceGraphic" in2="effect1_dropShadow_6331_2376" result="shape"/>
</filter>
</defs>
</svg>
