<svg width="615" height="134" viewBox="0 0 615 134" fill="none" xmlns="http://www.w3.org/2000/svg">
<path d="M108.78 17.94H102.76V24.38H108.78V17.94ZM2.1 96.48C6.72 95.5 12.18 94.38 18.06 92.98V68.34H5.32V50.56H18.06V28.02H4.2V10.24H48.02V28.02H35.28V50.56H46.2V68.34H35.28V88.64L48.58 85.28L50.82 103.34C35.7 107.68 19.18 112.02 6.02 115.52L2.1 96.48ZM37.66 113.14C50.26 109.08 63.7 102.22 74.06 94.38H54.32V60.08H122.92V94.38H116.48L128.1 103.2C124.32 106.42 120.54 109.36 117.18 111.74C121.1 114.12 125.3 116.08 129.78 117.62C125.86 121.26 120.54 128.54 117.88 133.44C105.98 127.98 96.32 118.88 88.9 107.68V133.3H70.56V115.8C63.56 120.42 56 124.48 48.72 127.42C46.34 123.22 41.3 116.64 37.66 113.14ZM46.34 56.44V40.48H129.08V56.44H46.34ZM52.08 37.68V4.63999H124.74V37.68H52.08ZM67.34 24.38H73.08V17.94H67.34V24.38ZM70.98 80.24H105.14V74.22H70.98V80.24ZM84.98 24.38H90.86V17.94H84.98V24.38ZM98.42 94.38C100.52 97.32 102.9 100.12 105.56 102.78C108.36 100.26 111.58 97.04 113.82 94.38H98.42ZM218.427 23.54C219.407 26.06 220.387 28.86 220.947 31.1H233.267C234.107 28.86 235.087 26.06 235.787 23.54H218.427ZM142.127 92.56C146.467 91.02 151.647 89.06 157.387 86.82V52.24H145.347V33.2H157.387V2.53999H175.307V33.2H186.227V52.24H175.307V79.4L185.947 74.78L190.147 92.84C176.287 99.84 161.027 106.98 148.707 112.86L142.127 92.56ZM176.147 116.78C196.447 112.72 201.767 106.56 204.007 97.74H193.647V51.82H263.507V97.74H248.247V111.46C248.247 115.24 248.527 115.66 250.347 115.66H253.707C255.527 115.66 255.947 114.26 256.367 104.74C259.727 107.54 267.427 110.62 272.187 111.74C270.507 128.4 266.027 132.74 255.807 132.74H246.987C232.707 132.74 229.907 127.14 229.907 111.74V97.74H223.047C220.247 114.26 212.967 126.58 186.647 134C184.827 128.96 179.927 120.7 176.147 116.78ZM187.347 47.48V31.1H202.607C201.907 28.72 201.067 26.2 200.087 24.1L202.747 23.54H189.447V8H217.167V0.859998H236.207V8H266.727V23.54H255.527C253.987 26.48 252.867 29 251.747 31.1H268.967V47.48H187.347ZM211.707 85.56H244.607V80.38H211.707V85.56ZM211.707 69.04H244.607V64H211.707V69.04Z" fill="white"/>
<path d="M322.48 129.35C299.27 127.59 292.45 105.59 313.46 90.52C315.88 88.76 319.62 86.45 322.7 84.58C322.59 81.94 321.6 80.73 318.41 81.39C313.68 82.38 307.08 87.99 300.26 94.48C297.62 96.9 293.66 101.63 291.02 104.16L286.84 108.12V87.66C293.88 81.39 300.37 73.03 304.88 63.68H287.17V48.5H310.82L313.46 39.59H330.07C329.41 42.45 328.53 45.2 327.43 48.5H352.51V63.68H320.17C317.97 68.08 317.2 69.51 316.54 70.94C317.09 70.5 318.08 69.73 319.73 68.96C326 66.1 334.58 67.42 336.78 77.1C346.13 72.15 360.32 66.76 360.32 66.76V84.58C358.01 84.58 348.33 88.21 337.77 92.94V108.34H322.7V100.42C321.82 100.97 320.83 101.52 320.06 102.07C313.35 106.8 314.12 112.96 323.8 113.51C336.45 114.28 348.33 112.52 354.49 111.53V128.03L346.24 128.91C340.3 129.57 328.64 129.79 322.48 129.35Z" fill="white"/>
<path d="M396 48.18H376.4V12.76H423.72V0.299997H444.44V12.76H491.9V48.18H471.18V31.94H396V48.18ZM374.58 72.4V52.52H442.62V36.98H462.5V52.52H494.42V72.4H462.5V110.48C462.5 121.4 460.4 126.86 453.54 129.94C446.54 133.02 436.88 133.44 424.56 133.44C423.72 127.42 420.5 118.32 417.84 112.72C425.82 113.14 435.9 113.14 438.84 113.14C441.64 113.14 442.62 112.44 442.62 110.06V72.4H374.58ZM388.16 84.02L403.7 73.66C411.4 81.64 420.36 92.84 424.14 101.1L407.48 112.72C404.26 104.74 395.86 92.7 388.16 84.02ZM545.127 130.08C534.067 126.86 527.207 119.86 527.207 108.66C527.207 105.72 527.767 102.5 529.867 98.3C534.067 90.18 541.907 84.72 555.627 87.38C567.527 89.76 573.687 95.78 578.587 106.98C582.647 102.92 584.047 97.6 584.047 92.56C584.047 81.92 577.887 76.46 562.767 76.88C547.787 77.3 538.547 83.18 531.407 89.2L514.887 102.92V76.32L558.567 43.28H521.887V21.44H590.767V41.04L565.847 59.38C574.387 57.7 581.387 58.12 586.987 60.64C597.627 65.4 604.487 77.58 604.767 92.14C605.047 108.1 596.787 119.86 584.607 126.16C573.407 131.9 557.727 133.86 545.127 130.08ZM545.967 104.18C543.727 107.82 546.387 112.02 552.127 114.12C556.467 115.52 562.767 114.68 564.167 114.4C561.787 107.82 557.587 102.5 551.567 101.8C548.487 101.38 546.947 102.64 545.967 104.18Z" fill="white"/>
</svg>
