<svg width="188" height="41" viewBox="0 0 188 41" fill="none" xmlns="http://www.w3.org/2000/svg">
<path d="M187.515 33.39C187.575 33.69 187.59 33.945 187.56 34.155C187.53 34.335 187.41 34.5 187.2 34.65C186.54 34.95 185.88 35.295 185.22 35.685C184.59 36.105 183.855 36.345 183.015 36.405C181.485 36.525 179.985 36.255 178.515 35.595C177.045 34.965 175.875 34.23 175.005 33.39C175.035 33.03 174.975 32.805 174.825 32.715C174.675 32.595 174.495 32.505 174.285 32.445C174.255 32.445 174.24 32.445 174.24 32.445C174.12 32.025 173.97 31.62 173.79 31.23C173.61 30.84 173.295 30.6 172.845 30.51C172.065 28.86 171.135 27.36 170.055 26.01C168.975 24.63 167.88 23.28 166.77 21.96C165.69 20.64 164.685 19.23 163.755 17.73C163.275 18.12 162.96 18.705 162.81 19.485C162.27 19.995 161.79 20.58 161.37 21.24C160.98 21.9 160.575 22.56 160.155 23.22C159.765 23.88 159.27 24.45 158.67 24.93C158.58 25.5 158.34 26.01 157.95 26.46C157.56 26.88 157.17 27.3 156.78 27.72C156.39 28.14 156.15 28.65 156.06 29.25C155.37 30.12 154.68 31.005 153.99 31.905C153.3 32.805 152.55 33.645 151.74 34.425C150.96 35.175 150.03 35.79 148.95 36.27C148.95 36.03 148.905 35.925 148.815 35.955C148.725 35.985 148.665 35.925 148.635 35.775C148.125 35.925 147.66 35.955 147.24 35.865C146.82 35.775 146.415 35.655 146.025 35.505C145.815 35.415 145.65 35.355 145.53 35.325C145.65 35.235 145.77 35.13 145.89 35.01C146.04 34.86 146.175 34.725 146.295 34.605C146.625 34.275 146.955 33.975 147.285 33.705C147.645 33.405 147.99 33.3 148.32 33.39C148.95 32.31 149.73 31.26 150.66 30.24C151.59 29.22 152.475 28.17 153.315 27.09C154.155 26.01 154.755 24.87 155.115 23.67C155.835 23.28 156.36 22.71 156.69 21.96C157.02 21.18 157.365 20.415 157.725 19.665C158.775 18.405 159.66 17.07 160.38 15.66C161.1 14.25 161.82 12.75 162.54 11.16C162.69 11.13 162.795 11.085 162.855 11.025C162.945 10.935 163.035 10.89 163.125 10.89C163.155 10.68 163.05 10.575 162.81 10.575C162.96 10.155 163.11 9.76499 163.26 9.405C163.44 9.015 163.62 8.655 163.8 8.32499C164.07 7.78499 164.295 7.27499 164.475 6.79499C164.685 6.28499 164.745 5.72999 164.655 5.12999C164.595 4.8 164.49 4.48499 164.34 4.18499C164.19 3.85499 164.025 3.53999 163.845 3.23999C163.605 2.81999 163.38 2.39999 163.17 1.97999C162.99 1.53 162.93 1.035 162.99 0.494995C164.04 0.524995 164.925 0.614995 165.645 0.764994C166.365 0.884995 167.025 1.13999 167.625 1.53C168.225 1.88999 168.84 2.44499 169.47 3.195C169.5 4.425 169.29 5.715 168.84 7.06499C168.42 8.38499 167.88 9.69 167.22 10.98C166.56 12.27 165.93 13.47 165.33 14.58C165.27 14.7 165.21 14.82 165.15 14.94C165.09 15.03 165.03 15.12 164.97 15.21C167.07 17.61 169.35 19.86 171.81 21.96C174.27 24.06 176.775 25.95 179.325 27.63C179.385 27.63 179.445 27.585 179.505 27.495C179.565 27.345 179.655 27.285 179.775 27.315C180.705 27.915 181.695 28.485 182.745 29.025C183.795 29.535 184.755 30.135 185.625 30.825C186.525 31.485 187.155 32.34 187.515 33.39Z" fill="#222222"/>
<path d="M143.91 26.91C143.46 27.54 142.86 27.975 142.11 28.215C141.36 28.425 140.58 28.485 139.77 28.395C138.96 28.305 138.21 28.11 137.52 27.81C136.29 26.55 135.15 25.245 134.1 23.895C133.08 22.545 132.03 21.21 130.95 19.89C129.9 18.57 128.73 17.325 127.44 16.155C127.17 16.275 126.975 16.485 126.855 16.785C126.765 17.055 126.645 17.31 126.495 17.55C127.005 18.03 127.53 18.585 128.07 19.215C128.64 19.815 128.94 20.49 128.97 21.24C129.63 21.33 130.23 21.525 130.77 21.825C131.31 22.095 131.82 22.245 132.3 22.275C132.54 22.485 132.63 22.71 132.57 22.95C132.54 23.19 132.705 23.43 133.065 23.67C132.645 23.94 132.255 24.09 131.895 24.12C131.535 24.15 131.16 24.15 130.77 24.12C130.47 24.09 130.155 24.09 129.825 24.12C129.525 24.12 129.18 24.18 128.79 24.3C128.76 24.57 128.73 24.855 128.7 25.155C128.7 25.425 128.685 25.65 128.655 25.83C129.825 25.71 130.92 25.86 131.94 26.28C132.99 26.7 133.62 27.315 133.83 28.125C133.83 28.155 133.755 28.185 133.605 28.215C133.335 28.335 133.305 28.41 133.515 28.44C132.915 28.44 132.12 28.455 131.13 28.485C130.17 28.515 129.345 28.605 128.655 28.755C128.655 29.055 128.67 29.37 128.7 29.7C128.73 30 128.76 30.255 128.79 30.465C129.45 30.285 130.005 30.165 130.455 30.105C130.935 30.045 131.595 30.06 132.435 30.15L132.3 29.835C133.08 30.045 133.995 30.36 135.045 30.78C136.095 31.2 136.905 31.755 137.475 32.445C136.935 32.715 136.29 32.865 135.54 32.895C134.79 32.895 134.01 32.88 133.2 32.85C132.45 32.82 131.7 32.805 130.95 32.805C130.2 32.805 129.48 32.895 128.79 33.075C128.76 33.405 128.73 33.75 128.7 34.11C128.7 34.44 128.685 34.77 128.655 35.1C128.625 36.12 128.535 37.11 128.385 38.07C128.235 39.03 127.77 39.765 126.99 40.275C126.39 39.735 126.03 38.94 125.91 37.89C125.82 36.87 125.775 35.775 125.775 34.605C125.775 34.395 125.775 34.185 125.775 33.975C125.775 33.765 125.775 33.555 125.775 33.345C125.355 33.075 124.845 32.955 124.245 32.985C123.645 33.015 123.075 33.135 122.535 33.345C121.995 33.525 121.59 33.735 121.32 33.975C120.36 33.885 119.565 33.615 118.935 33.165C118.305 32.715 117.78 32.16 117.36 31.5C117.96 31.14 118.74 30.915 119.7 30.825C120.69 30.705 121.71 30.63 122.76 30.6C123.84 30.57 124.785 30.525 125.595 30.465C125.745 30.375 125.82 30.18 125.82 29.88C125.82 29.55 125.805 29.265 125.775 29.025C125.775 28.965 125.775 28.92 125.775 28.89C124.575 29.16 123.405 29.115 122.265 28.755C121.125 28.365 120.255 27.795 119.655 27.045C120.435 26.685 121.365 26.49 122.445 26.46C123.555 26.4 124.605 26.295 125.595 26.145V24.615C125.325 24.645 125.055 24.66 124.785 24.66C124.515 24.63 124.245 24.615 123.975 24.615C123.855 24.615 123.735 24.615 123.615 24.615C123.525 24.615 123.42 24.615 123.3 24.615C122.64 24.615 122.145 24.195 121.815 23.355C121.065 23.985 120.255 24.705 119.385 25.515C118.545 26.295 117.72 27.015 116.91 27.675C116.13 28.305 115.47 28.74 114.93 28.98C114.12 29.1 113.43 29.01 112.86 28.71C112.29 28.41 111.81 28.005 111.42 27.495C111.93 27.255 112.485 26.94 113.085 26.55C113.715 26.13 114.3 25.695 114.84 25.245C115.41 24.795 115.89 24.39 116.28 24.03C116.67 23.64 116.88 23.37 116.91 23.22C116.61 23.25 116.385 23.37 116.235 23.58C116.115 23.79 115.89 23.925 115.56 23.985C115.56 23.985 115.575 23.94 115.605 23.85C115.665 23.76 115.65 23.7 115.56 23.67C114.45 24.09 113.205 24.39 111.825 24.57C110.475 24.75 109.215 25.02 108.045 25.38C107.355 25.59 106.71 25.875 106.11 26.235C105.54 26.595 105.09 27.075 104.76 27.675C103.92 27.615 103.23 27.405 102.69 27.045C102.18 26.655 101.7 26.22 101.25 25.74C100.83 25.26 100.32 24.87 99.7202 24.57C99.9902 24.27 100.29 24.09 100.62 24.03C100.98 23.97 101.355 23.925 101.745 23.895C102.135 23.865 102.525 23.745 102.915 23.535C102.675 22.755 102.555 22.035 102.555 21.375C102.555 20.685 102.585 20.01 102.645 19.35C102.675 18.84 102.705 18.33 102.735 17.82C102.765 17.28 102.72 16.725 102.6 16.155C102.54 15.825 102.42 15.525 102.24 15.255C102.06 14.985 101.88 14.73 101.7 14.49C101.49 14.22 101.31 13.95 101.16 13.68C101.01 13.41 100.935 13.11 100.935 12.78C100.995 12.6 101.1 12.495 101.25 12.465C101.67 12.405 102.09 12.48 102.51 12.69C102.93 12.9 103.335 13.14 103.725 13.41C103.905 13.5 104.07 13.605 104.22 13.725C104.4 13.815 104.58 13.905 104.76 13.995C105.36 15.105 105.66 16.155 105.66 17.145C105.66 18.135 105.6 19.215 105.48 20.385C105.42 20.775 105.36 21.18 105.3 21.6C105.27 22.02 105.24 22.455 105.21 22.905C105.69 22.875 106.305 22.77 107.055 22.59C107.835 22.38 108.48 22.17 108.99 21.96C108.96 19.29 108.885 16.785 108.765 14.445C108.675 12.075 108.405 9.67501 107.955 7.24501C107.595 6.91501 107.25 6.55501 106.92 6.16501C106.62 5.77501 106.395 5.31001 106.245 4.77001C107.355 4.59001 108.345 4.65001 109.215 4.95001C110.115 5.25001 110.79 5.76001 111.24 6.48001C111.72 7.20001 111.885 8.11501 111.735 9.22501C111.705 9.52501 111.69 9.84001 111.69 10.17C111.72 10.47 111.765 10.785 111.825 11.115C111.855 11.325 111.87 11.55 111.87 11.79C111.9 12.03 111.915 12.255 111.915 12.465C111.885 14.235 111.795 15.795 111.645 17.145C111.495 18.465 111.375 19.875 111.285 21.375C111.915 21.525 112.515 21.615 113.085 21.645C113.685 21.645 114.21 21.75 114.66 21.96C114.54 21.09 114.495 20.28 114.525 19.53C114.555 18.78 114.6 18.06 114.66 17.37C114.69 16.95 114.72 16.53 114.75 16.11C114.78 15.66 114.795 15.21 114.795 14.76C114.405 14.25 114.075 13.575 113.805 12.735C113.565 11.865 113.49 11.055 113.58 10.305C114.09 10.215 114.69 10.35 115.38 10.71C116.1 11.07 116.745 11.52 117.315 12.06C117.915 12.6 118.245 13.14 118.305 13.68C118.305 13.77 118.29 13.86 118.26 13.95C118.23 14.04 118.185 14.13 118.125 14.22C118.035 14.4 117.99 14.535 117.99 14.625C117.93 14.955 117.9 15.315 117.9 15.705C117.93 16.065 117.96 16.44 117.99 16.83C118.02 17.22 118.035 17.625 118.035 18.045C118.035 18.435 118.02 18.825 117.99 19.215C117.93 19.635 117.855 19.98 117.765 20.25C117.675 20.52 117.57 20.775 117.45 21.015C117.33 21.315 117.225 21.615 117.135 21.915C117.045 22.215 117.03 22.59 117.09 23.04C117.51 22.89 118.05 22.485 118.71 21.825C119.37 21.165 120.09 20.37 120.87 19.44C121.65 18.48 122.415 17.475 123.165 16.425C123.945 15.375 124.65 14.355 125.28 13.365C124.74 12.585 124.215 11.79 123.705 10.98C123.225 10.17 122.64 9.43501 121.95 8.77501C121.35 9.19501 120.81 9.69001 120.33 10.26C119.88 10.83 119.31 11.31 118.62 11.7C118.5 11.67 118.395 11.625 118.305 11.565C118.245 11.475 118.185 11.385 118.125 11.295C118.005 11.145 117.855 11.01 117.675 10.89C117.525 10.77 117.27 10.725 116.91 10.755C116.91 10.485 117 10.275 117.18 10.125C117.36 9.97501 117.555 9.82501 117.765 9.67501C117.885 9.61501 118.005 9.55501 118.125 9.49501C118.245 9.40501 118.35 9.31501 118.44 9.22501C119.34 8.26501 120.18 7.15501 120.96 5.89501C121.77 4.63501 122.655 3.54001 123.615 2.61001C123.525 2.25001 123.36 1.98001 123.12 1.80001C122.88 1.59001 122.655 1.38001 122.445 1.17001C122.235 0.930013 122.115 0.600012 122.085 0.180012C122.805 0.150013 123.48 0.225013 124.11 0.405012C124.77 0.585013 125.37 0.765014 125.91 0.945013C126.12 1.00501 126.315 1.06501 126.495 1.12501C126.675 1.18501 126.84 1.23001 126.99 1.26001C127.23 1.38001 127.32 1.68001 127.26 2.16001C128.13 2.19001 128.76 2.14501 129.15 2.02501C129.57 1.90501 129.96 1.65001 130.32 1.26001C131.46 1.47001 132.69 1.81501 134.01 2.29501C135.33 2.77501 136.38 3.49501 137.16 4.45501C136.95 4.93501 136.56 5.25001 135.99 5.40001C135.42 5.55001 134.82 5.67001 134.19 5.76001C133.56 5.82001 133.035 6.00001 132.615 6.30001C132.015 7.35001 131.46 8.47501 130.95 9.67501C130.47 10.875 129.855 11.955 129.105 12.915C130.365 14.025 131.58 15.15 132.75 16.29C133.95 17.43 135.21 18.495 136.53 19.485C137.85 20.445 139.35 21.285 141.03 22.005C141.3 22.275 141.54 22.575 141.75 22.905C141.96 23.205 142.275 23.415 142.695 23.535C142.755 23.625 142.74 23.715 142.65 23.805C142.56 23.865 142.515 23.925 142.515 23.985C142.935 24.255 143.295 24.675 143.595 25.245C143.925 25.815 144.03 26.37 143.91 26.91ZM129.42 4.32001C128.73 4.50001 128.025 4.63501 127.305 4.72501C126.585 4.81501 125.97 4.78501 125.46 4.63501C125.07 5.35501 124.605 6.00001 124.065 6.57001C123.525 7.11001 123.015 7.69501 122.535 8.32501C123.255 8.74501 123.945 9.19501 124.605 9.67501C125.295 10.155 125.985 10.62 126.675 11.07C126.675 11.04 126.705 10.965 126.765 10.845C126.825 10.725 126.87 10.605 126.9 10.485C126.93 10.365 126.9 10.305 126.81 10.305C126.78 10.335 126.735 10.41 126.675 10.53C126.645 10.71 126.54 10.785 126.36 10.755C126.96 9.73501 127.515 8.70001 128.025 7.65001C128.565 6.60001 129.03 5.49001 129.42 4.32001ZM125.46 21.825C125.46 21.465 125.385 21.09 125.235 20.7C125.115 20.28 124.935 19.995 124.695 19.845C124.485 20.175 124.17 20.55 123.75 20.97C123.36 21.39 123.06 21.735 122.85 22.005C123.27 22.065 123.75 22.065 124.29 22.005C124.86 21.945 125.25 21.885 125.46 21.825Z" fill="#222222"/>
<path d="M84.5998 10.35C84.2398 10.83 83.6848 11.13 82.9348 11.25C82.1848 11.37 81.5398 11.55 80.9998 11.79C80.7298 12.18 80.5198 12.75 80.3698 13.5C80.2498 14.22 80.1598 14.955 80.0998 15.705C80.0698 16.455 80.0398 17.085 80.0098 17.595C79.8898 20.505 79.7548 23.415 79.6048 26.325C79.4548 29.235 79.1998 32.13 78.8398 35.01C78.6898 35.22 78.5098 35.4 78.2998 35.55C78.0898 35.73 77.8498 35.82 77.5798 35.82C77.1598 35.82 76.7548 35.625 76.3648 35.235C76.0048 34.815 75.6298 34.38 75.2398 33.93C74.8798 33.45 74.4898 33.135 74.0698 32.985H72.2698C69.6298 32.985 66.9898 33.09 64.3498 33.3C61.7398 33.51 59.0998 33.675 56.4298 33.795C55.7998 34.485 55.0648 34.83 54.2248 34.83C53.2948 34.83 52.4098 34.47 51.5698 33.75C50.7598 33.03 50.1898 32.265 49.8598 31.455L50.8498 31.41C50.7298 31.11 50.5948 30.915 50.4448 30.825C50.3248 30.705 50.2648 30.45 50.2648 30.06C50.2648 29.4 50.3848 28.56 50.6248 27.54C50.8648 26.52 50.9848 25.515 50.9848 24.525C50.9848 24.015 50.9398 23.415 50.8498 22.725C50.7898 22.005 50.6398 21.345 50.3998 20.745C50.1598 20.115 49.7848 19.665 49.2748 19.395C49.4548 19.245 49.6198 19.17 49.7698 19.17C49.9198 19.17 50.0998 19.2 50.3098 19.26C50.3398 19.26 50.3548 19.26 50.3548 19.26V18.405C50.3548 17.655 50.2948 16.8 50.1748 15.84C50.0548 14.85 49.7848 13.95 49.3648 13.14C48.9748 12.3 48.3448 11.745 47.4748 11.475C47.3248 10.815 47.0248 10.32 46.5748 9.98998C46.1548 9.62999 45.6748 9.29998 45.1348 8.99999C45.9148 8.54998 46.7398 8.14498 47.6098 7.78499C48.5098 7.39498 49.3648 7.07998 50.1748 6.83998C50.3248 6.77998 50.5198 6.76498 50.7598 6.79498C51.0298 6.82498 51.2398 6.92998 51.3898 7.10999C55.2598 6.50998 59.1298 6.08998 62.9998 5.84998C66.8698 5.60998 70.7548 5.47498 74.6548 5.44498C75.2548 5.05498 75.9748 4.85999 76.8148 4.85999C77.9548 4.85999 79.1398 5.12999 80.3698 5.66999C81.5998 6.17998 82.6498 6.77998 83.5198 7.46998L83.4748 7.73999C83.4148 8.06999 83.4598 8.33998 83.6098 8.54998C83.7598 8.72998 83.9248 8.89499 84.1048 9.04499C84.2548 9.19499 84.3898 9.34498 84.5098 9.49498C84.6298 9.64498 84.6748 9.83998 84.6448 10.08L84.5998 10.35ZM76.0498 17.415C76.0498 16.785 76.0348 16.155 76.0048 15.525C75.9748 14.895 75.9448 14.265 75.9148 13.635C75.8848 12.915 75.8548 12.195 75.8248 11.475C75.8248 10.725 75.8248 9.97498 75.8248 9.22499C75.7048 9.01498 75.5698 8.83498 75.4198 8.68498C75.2698 8.53498 75.1648 8.33998 75.1048 8.09998C74.5048 8.12998 73.9048 8.14498 73.3048 8.14498C72.7348 8.11498 72.1498 8.09998 71.5498 8.09998C71.1898 8.09998 70.8298 8.09998 70.4698 8.09998C70.1398 8.06998 69.7948 8.05498 69.4348 8.05498C68.7748 8.05498 68.0998 8.06998 67.4098 8.09998C66.7498 8.12998 66.0748 8.18998 65.3848 8.27998C65.4748 8.63998 65.5648 8.99998 65.6548 9.35998C65.7748 9.68999 65.8348 10.035 65.8348 10.395C65.8348 10.545 65.7748 10.68 65.6548 10.8C65.5348 10.92 65.4598 11.055 65.4298 11.205C65.6398 12.255 65.7448 13.395 65.7448 14.625C65.7748 15.855 65.7598 17.01 65.6998 18.09C66.2998 18.09 66.9298 18.06 67.5898 18C68.2798 17.91 68.8798 17.715 69.3898 17.415C69.8698 17.745 70.4098 17.985 71.0098 18.135C71.6398 18.255 72.2398 18.435 72.8098 18.675C73.4098 18.885 73.8748 19.275 74.2048 19.845C73.9648 20.325 73.5448 20.655 72.9448 20.835C72.3748 21.015 71.7448 21.12 71.0548 21.15C70.3648 21.15 69.7198 21.15 69.1198 21.15C68.9698 21.12 68.8198 21.105 68.6698 21.105C68.5198 21.105 68.3848 21.105 68.2648 21.105C67.8148 21.105 67.3498 21.12 66.8698 21.15C66.3898 21.18 65.9398 21.3 65.5198 21.51C65.5798 22.89 65.6098 24.315 65.6098 25.785C65.6098 27.225 65.5348 28.65 65.3848 30.06C66.0448 30.12 66.7048 30.15 67.3648 30.15C68.0548 30.12 68.7298 30.09 69.3898 30.06C69.7798 30.03 70.1698 30.015 70.5598 30.015C70.9798 29.985 71.3848 29.97 71.7748 29.97C72.3748 29.97 72.9748 30 73.5748 30.06C74.2048 30.09 74.8048 30.21 75.3748 30.42C75.3748 28.26 75.4798 26.1 75.6898 23.94C75.9298 21.78 76.0498 19.605 76.0498 17.415ZM62.4148 18.495C62.4148 16.815 62.3098 15.21 62.0998 13.68C61.9198 12.15 61.7248 10.56 61.5148 8.90998C60.5548 8.96999 59.5198 9.04498 58.4098 9.13498C57.2998 9.19498 56.2198 9.34498 55.1698 9.58498C54.1198 9.79498 53.1898 10.14 52.3798 10.62C52.7398 11.34 52.9798 12.21 53.0998 13.23C53.2198 14.22 53.3098 15.225 53.3698 16.245C53.4298 17.265 53.5198 18.195 53.6398 19.035C54.4798 19.125 55.3198 19.14 56.1598 19.08C57.0298 18.99 57.8848 18.9 58.7248 18.81C59.3248 18.72 59.9248 18.645 60.5248 18.585C61.1548 18.525 61.7848 18.495 62.4148 18.495ZM62.5048 30.465C62.5348 29.475 62.5498 28.485 62.5498 27.495C62.5498 26.475 62.5348 25.47 62.5048 24.48C62.5048 24 62.5048 23.505 62.5048 22.995C62.5048 22.485 62.5048 21.99 62.5048 21.51C61.0648 21.57 59.6248 21.675 58.1848 21.825C56.7748 21.975 55.3648 22.17 53.9548 22.41C54.0148 23.79 54.0448 25.185 54.0448 26.595C54.0748 28.005 54.1648 29.415 54.3148 30.825C54.5848 30.855 54.8548 30.885 55.1248 30.915C55.3948 30.915 55.6648 30.915 55.9348 30.915C56.4748 30.915 56.9998 30.9 57.5098 30.87C58.0198 30.81 58.5448 30.75 59.0848 30.69C59.6548 30.63 60.2248 30.585 60.7948 30.555C61.3648 30.495 61.9348 30.465 62.5048 30.465Z" fill="#222222"/>
<path d="M42.525 31.32C42.375 31.44 42.24 31.59 42.12 31.77C42.03 31.92 41.985 32.13 41.985 32.4C41.145 33.24 40.11 34.02 38.88 34.74C37.65 35.46 36.21 35.85 34.56 35.91C33.78 35.94 32.79 35.94 31.59 35.91C30.42 35.88 29.175 35.82 27.855 35.73C26.565 35.64 25.335 35.535 24.165 35.415C22.995 35.295 22.02 35.175 21.24 35.055C20.22 34.875 19.2 34.575 18.18 34.155C17.16 33.705 16.41 33.255 15.93 32.805C15.51 32.265 15.18 31.68 14.94 31.05C14.73 30.42 14.415 29.91 13.995 29.52C14.415 27.42 14.565 25.56 14.445 23.94C14.325 22.32 14.145 20.655 13.905 18.945C13.875 18.855 13.845 18.765 13.815 18.675C13.815 18.585 13.815 18.495 13.815 18.405C13.245 18.195 12.63 17.895 11.97 17.505C11.34 17.115 10.785 16.665 10.305 16.155C9.825 15.615 9.54 15.075 9.45 14.535C9.69 14.295 9.975 14.19 10.305 14.22C10.635 14.25 10.98 14.295 11.34 14.355C11.67 14.445 12.015 14.505 12.375 14.535C12.765 14.565 13.14 14.49 13.5 14.31C13.53 13.74 13.5 13.155 13.41 12.555C13.35 11.955 13.275 11.37 13.185 10.8C13.095 10.14 13.005 9.51 12.915 8.91C12.855 8.28 12.87 7.68 12.96 7.11C13.59 6.96 14.22 7.095 14.85 7.515C15.48 7.935 16.05 8.49 16.56 9.18C17.1 9.84 17.505 10.5 17.775 11.16C17.745 11.22 17.715 11.31 17.685 11.43C17.595 11.67 17.49 11.97 17.37 12.33C17.25 12.69 17.205 13.05 17.235 13.41C18.735 13.14 20.13 12.78 21.42 12.33C21.51 11.37 21.48 10.35 21.33 9.27C21.18 8.16 21.015 7.05 20.835 5.94C20.625 4.92 20.445 3.9 20.295 2.88C20.175 1.86 20.145 0.900001 20.205 0C20.685 0 21.045 0.135 21.285 0.405C21.525 0.675 21.885 0.81 22.365 0.81C22.575 1.44 22.89 1.965 23.31 2.385C23.76 2.805 24.18 3.12 24.57 3.33C24.93 3.81 25.095 4.515 25.065 5.445C25.065 6.375 25.02 7.35 24.93 8.37C24.87 8.94 24.81 9.51 24.75 10.08C24.72 10.62 24.72 11.13 24.75 11.61C25.32 11.4 25.95 11.265 26.64 11.205C27.33 11.145 27.945 11.01 28.485 10.8C29.025 10.59 29.355 10.185 29.475 9.585C29.505 9.585 29.535 9.6 29.565 9.63C29.745 9.66 29.91 9.675 30.06 9.675C30.21 9.675 30.27 9.54 30.24 9.27C30.36 9.3 30.465 9.33 30.555 9.36C30.645 9.36 30.72 9.375 30.78 9.405C30.96 9.465 31.11 9.51 31.23 9.54C31.38 9.54 31.545 9.48 31.725 9.36C32.235 9.66 32.94 10.005 33.84 10.395C34.74 10.755 35.445 11.205 35.955 11.745C36.285 12.075 36.48 12.465 36.54 12.915C36.6 13.335 36.435 13.815 36.045 14.355C35.895 14.385 35.745 14.37 35.595 14.31C35.475 14.25 35.415 14.22 35.415 14.22C34.935 14.61 34.56 15.135 34.29 15.795C34.05 16.455 33.84 17.19 33.66 18C33.42 19.2 33.195 20.46 32.985 21.78C32.775 23.07 32.415 24.18 31.905 25.11C31.845 25.23 31.665 25.455 31.365 25.785C31.095 26.085 30.795 26.385 30.465 26.685C30.165 26.985 29.925 27.15 29.745 27.18C29.295 27.24 28.785 27.12 28.215 26.82C27.675 26.52 27.135 26.145 26.595 25.695C26.055 25.245 25.56 24.81 25.11 24.39C24.87 24.18 24.66 24 24.48 23.85C24.3 23.67 24.135 23.535 23.985 23.445C23.775 23.535 23.67 23.76 23.67 24.12C23.67 24.45 23.685 24.795 23.715 25.155C23.745 25.335 23.76 25.515 23.76 25.695C23.76 25.845 23.76 25.98 23.76 26.1C23.52 26.4 23.235 26.52 22.905 26.46C22.605 26.37 22.29 26.175 21.96 25.875C21.78 24.285 21.69 22.665 21.69 21.015C21.72 19.335 21.63 17.505 21.42 15.525C20.7 15.555 19.98 15.675 19.26 15.885C18.57 16.095 17.97 16.32 17.46 16.56C17.22 18.09 17.13 19.665 17.19 21.285C17.28 22.875 17.4 24.585 17.55 26.415C17.58 26.925 17.61 27.465 17.64 28.035C17.7 28.575 17.745 29.13 17.775 29.7C18.195 30.21 18.84 30.63 19.71 30.96C20.58 31.26 21.57 31.485 22.68 31.635C23.79 31.785 24.93 31.86 26.1 31.86C27.27 31.83 28.35 31.755 29.34 31.635C30.21 31.515 31.08 31.365 31.95 31.185C32.85 30.975 33.645 30.645 34.335 30.195C35.025 29.745 35.505 29.055 35.775 28.125C35.925 27.165 36.03 26.13 36.09 25.02C36.15 23.88 36.015 22.995 35.685 22.365C36.015 22.275 36.21 22.32 36.27 22.5C36.36 22.65 36.405 22.875 36.405 23.175C36.405 23.265 36.405 23.4 36.405 23.58C36.375 23.91 36.375 24.225 36.405 24.525C36.465 24.795 36.645 24.915 36.945 24.885C36.945 25.065 36.915 25.2 36.855 25.29C36.795 25.35 36.735 25.41 36.675 25.47C36.525 25.56 36.435 25.665 36.405 25.785C36.405 25.785 36.54 25.8 36.81 25.83C37.08 25.86 37.32 26.04 37.53 26.37L37.44 24.84C37.89 24.78 38.205 24.915 38.385 25.245C38.565 25.545 38.73 25.905 38.88 26.325C38.91 26.475 38.955 26.625 39.015 26.775C39.075 26.925 39.135 27.075 39.195 27.225C39.345 27.255 39.42 27.255 39.42 27.225C39.45 27.165 39.465 27.09 39.465 27C39.435 26.94 39.405 26.865 39.375 26.775C39.375 26.655 39.405 26.55 39.465 26.46C39.765 26.7 40.005 26.955 40.185 27.225C40.365 27.465 40.305 27.75 40.005 28.08C40.155 28.29 40.29 28.29 40.41 28.08C40.53 27.87 40.59 27.765 40.59 27.765C40.86 28.305 41.13 28.725 41.4 29.025C41.67 29.295 41.91 29.595 42.12 29.925C42.36 30.225 42.495 30.69 42.525 31.32ZM11.34 27.54C11.31 28.23 11.22 29.025 11.07 29.925C10.92 30.825 10.74 31.71 10.53 32.58C10.35 33.42 10.17 34.14 9.99 34.74C9.84 35.34 9.75 35.685 9.72 35.775C9.57 36.225 9.345 36.48 9.045 36.54C8.745 36.6 8.4 36.615 8.01 36.585C7.86 36.585 7.695 36.585 7.515 36.585C7.365 36.585 7.2 36.6 7.02 36.63C5.91 36 4.95 35.205 4.14 34.245C3.36 33.255 2.58 32.25 1.8 31.23C2.19 31.17 2.595 31.185 3.015 31.275C3.435 31.365 3.87 31.47 4.32 31.59C4.83 31.74 5.325 31.86 5.805 31.95C6.285 32.04 6.735 32.04 7.155 31.95C7.665 31.05 8.205 29.985 8.775 28.755C9.375 27.525 9.93 26.46 10.44 25.56C10.44 25.56 10.41 25.755 10.35 26.145C10.32 26.535 10.35 26.85 10.44 27.09C10.59 27.03 10.665 26.94 10.665 26.82C10.695 26.7 10.71 26.64 10.71 26.64C10.95 26.97 11.025 27.405 10.935 27.945C11.055 27.975 11.145 27.915 11.205 27.765C11.295 27.615 11.34 27.54 11.34 27.54ZM9.225 19.71C8.985 20.22 8.685 20.505 8.325 20.565C7.995 20.625 7.635 20.64 7.245 20.61C7.065 20.61 6.885 20.61 6.705 20.61C6.555 20.58 6.39 20.58 6.21 20.61C4.65 19.56 3.435 18.33 2.565 16.92C1.695 15.51 0.84 13.89 0 12.06C1.62 12.03 3.075 12.36 4.365 13.05C5.655 13.74 6.72 14.67 7.56 15.84C8.4 16.98 8.955 18.27 9.225 19.71ZM29.97 13.815C29.34 13.755 28.68 13.785 27.99 13.905C27.3 14.025 26.61 14.16 25.92 14.31C25.68 14.37 25.44 14.43 25.2 14.49C24.99 14.55 24.78 14.595 24.57 14.625C24.54 14.925 24.51 15.24 24.48 15.57C24.48 15.9 24.465 16.215 24.435 16.515C24.375 17.385 24.315 18.255 24.255 19.125C24.195 19.995 24.18 20.775 24.21 21.465C24.81 21.525 25.44 21.585 26.1 21.645C26.76 21.675 27.39 21.72 27.99 21.78C28.56 21.15 29.01 20.385 29.34 19.485C29.67 18.555 29.88 17.595 29.97 16.605C30.09 15.585 30.09 14.655 29.97 13.815ZM10.755 6.975C10.755 7.365 10.665 7.725 10.485 8.055C10.305 8.385 9.99 8.625 9.54 8.775C8.16 8.325 7.02 7.44 6.12 6.12C5.25 4.8 4.68 3.27 4.41 1.53C4.95 1.74 5.685 1.995 6.615 2.295C7.545 2.565 8.34 2.91 9 3.33C9.42 3.57 9.81 4.065 10.17 4.815C10.56 5.565 10.755 6.285 10.755 6.975ZM37.53 23.94C37.65 24.33 37.575 24.525 37.305 24.525C37.305 24.345 37.275 24.195 37.215 24.075C37.185 23.925 37.155 23.79 37.125 23.67C37.065 23.58 37.02 23.49 36.99 23.4C36.96 23.28 36.945 23.175 36.945 23.085C37.035 23.055 37.14 23.145 37.26 23.355C37.41 23.535 37.5 23.73 37.53 23.94Z" fill="#222222"/>
</svg>
