<svg width="288" height="32" viewBox="0 0 288 32" fill="none" xmlns="http://www.w3.org/2000/svg">
<path d="M264.502 24.8101C271.53 20.6655 275.999 15.7281 278.882 8.48405H265.836V2.68164H286.558C285.549 8.26781 283.279 13.0251 280.792 16.8813C282.774 19.8006 285.838 22.5396 288 24.3416V31.3694C283.747 28.306 280.72 25.4228 277.585 21.2422C274.665 24.8461 269.115 29.4232 264.502 31.5135V24.8101Z" fill="white"/>
<path d="M238.382 25.2065C239.283 25.1705 241.157 24.8461 242.923 24.0893C245.735 22.8639 247.176 20.9178 247.536 17.3498H237.373V11.8358H260.871V17.3498H253.375C252.942 22.5756 250.852 25.6751 247.753 27.7654C244.653 29.8917 240.401 30.9008 238.382 31.0089V25.2065ZM238.382 8.05157V2.53748H259.898V8.05157H238.382Z" fill="white"/>
<path d="M210.301 24.8101C217.329 20.6655 221.798 15.7281 224.681 8.48405H211.635V2.68164H232.358C231.349 8.26781 229.078 13.0251 226.591 16.8813C228.574 19.8006 231.637 22.5396 233.799 24.3416V31.3694C229.547 28.306 226.519 25.4228 223.384 21.2422C220.465 24.8461 214.914 29.4232 210.301 31.5135V24.8101Z" fill="white"/>
<path d="M184.403 30.8287V2.24915H190.134V23.9091C194.458 22.8639 199.216 17.2057 201.27 12.088H207.216C203.216 22.9721 195.504 30.144 184.403 30.8287Z" fill="white"/>
<path d="M171.093 18.5752C169.039 23.2604 165.543 27.7294 159.2 31.4415V25.567C164.606 21.7107 166.732 18.5752 168.498 14.4307H159.2V9.74548H171.093V5.88922H175.85V9.74548H179.346V14.4307H175.85V31.946H171.093V18.5752Z" fill="white"/>
<path d="M135.227 24.702C139.841 24.0533 143.264 22.4315 145.607 19.8006C147.95 17.1697 149.211 13.4576 149.427 8.55617H132.885V2.78979H154.977V8.08765C154.977 13.5657 153.464 19.1158 149.607 23.3685C146.472 26.8284 141.823 29.4232 135.227 30.4684V24.702Z" fill="white"/>
<path d="M110.235 22.6281C109.679 21.809 108.892 20.7605 108.106 19.7121V31.3431H103.617V20.7605C102.536 21.7762 101.389 22.6608 100.275 23.3816C99.915 22.1038 98.8666 19.7121 98.2113 18.7947C101.389 17.0583 104.436 13.9785 106.337 10.5056H99.4235V6.21355H103.617V0.217834H108.106V6.21355H108.794L109.547 6.04973L112.07 7.7862C111.218 10.2435 110.039 12.6024 108.63 14.7321C110.104 16.0098 112.365 18.1067 112.988 18.762L110.235 22.6281ZM110.727 30.393V25.7078H117.542V14.601H112.038V10.0141H117.542V0.545469H122.227V10.0141H127.764V14.601H122.227V25.7078H128.55V30.393H110.727Z" fill="white"/>
<path d="M85.7221 9.91584C83.6907 8.27767 81.9215 6.50844 80.742 4.80474C79.5625 6.47567 77.9244 8.2449 75.9913 9.91584H85.7221ZM65.7363 10.9315C71.0768 8.57254 75.9258 3.95289 78.1537 0.25061H82.9372C86.279 5.06684 90.9642 8.50701 95.9115 10.2107C94.7648 11.423 93.7819 13.1267 92.9628 14.5683C91.3246 13.7819 89.6209 12.7335 87.95 11.5868V14.2734H73.534V11.8489C71.9286 12.9956 70.1922 14.0768 68.4229 14.9287C67.8987 13.7819 66.6865 11.9472 65.7363 10.9315ZM67.866 20.6623V16.2392H93.7819V20.6623H87.3275C89.9158 23.1195 92.5369 26.2648 93.9129 28.6238L89.6864 31.3104C89.3916 30.7207 88.9984 30.0654 88.5397 29.3774C81.3973 29.8033 73.8617 30.1637 68.554 30.4258L67.9643 25.7734C69.3731 25.7406 70.9785 25.6751 72.715 25.6096C73.403 24.0697 74.0583 22.3004 74.5497 20.6623H67.866ZM77.7605 25.4457L85.3617 25.1509C84.5426 24.2007 83.6907 23.2833 82.9044 22.4643L86.1808 20.6623H80.1195C79.3332 22.2677 78.5469 23.9386 77.7605 25.4457Z" fill="white"/>
<path d="M43.8767 24.0369C45.6459 23.742 47.4479 23.4471 49.2172 23.1195L49.512 27.346C44.532 28.46 39.0932 29.5739 35.0306 30.4258L33.8183 25.6095C35.3254 25.413 37.2585 25.1181 39.3553 24.7905V17.8118H35.1289V13.2249H48.4308V17.8118H43.8767V24.0369ZM33.9166 10.1124V5.45999H48.9223C48.8895 3.75629 48.8895 2.01983 48.8895 0.316125H53.7713C53.7058 2.01983 53.7058 3.75629 53.7385 5.45999H57.6701C56.851 4.50985 55.6716 3.42865 54.6559 2.64233L57.6374 0.0540161C58.9479 1.00416 60.7171 2.44575 61.5362 3.49418L59.3738 5.45999H62.0604V10.1124H53.9023C54.4921 18.9585 56.1303 26.2976 57.965 26.2976C58.522 26.2976 58.8496 24.5283 59.0134 20.5312C60.0619 21.6452 61.7 22.8246 62.9778 23.3161C62.3226 29.8688 60.8154 31.3104 57.5718 31.3104C52.0348 31.3104 49.8397 21.4486 49.1516 10.1124H33.9166Z" fill="white"/>
<path d="M25.3589 17.9429C26.604 21.0226 28.537 24.0696 30.5683 25.9699C29.5527 26.8218 28.0455 28.4927 27.3247 29.705C25.8176 27.9357 24.4743 25.4457 23.3931 22.6936V31.3104H18.9701V22.7263C17.3974 25.6423 15.4971 28.1651 13.2364 29.9015C12.5484 28.7876 11.1723 27.1166 10.2222 26.2648C13.0399 24.4628 15.4971 21.3175 17.0698 17.9429H12.4501V13.6509H18.9701V9.88305H16.5783C16.0869 11.2264 15.4971 12.4386 14.8746 13.4215C14.1211 12.7335 12.3518 11.554 11.3689 11.0298C11.4672 10.8987 11.5655 10.7349 11.6966 10.5711H8.87891V11.4557C9.79628 12.7007 11.9587 16.3375 12.4501 17.2548L9.89457 20.4001C9.63247 19.6466 9.27207 18.6964 8.87891 17.7135V31.3104H4.45583V20.4657C3.7678 22.5625 2.98148 24.43 2.09686 25.8389C1.7037 24.4628 0.720797 22.2677 0 20.9571C1.83476 18.5326 3.4074 14.2406 4.22649 10.5711H0.65527V6.18078H4.45583V0.185059H8.87891V6.18078H12.188V9.62094C13.2037 7.49132 13.859 4.64089 14.2194 1.856L18.3148 2.60956C18.151 3.62522 17.9872 4.60813 17.7906 5.59103H18.9701V0.185059H23.3931V5.59103H29.094V9.88305H23.3931V13.6509H29.7165V17.9429H25.3589Z" fill="white"/>
</svg>
