<svg width="319" height="64" viewBox="0 0 319 64" fill="none" xmlns="http://www.w3.org/2000/svg">
<g clip-path="url(#clip0_4710_6109)">
<path d="M10.4869 50.1233V54.4704H10.332C9.70469 51.6394 8.12467 50.3321 5.75466 50.3321H4.06621V56.6672L4.52317 56.6517C6.17289 56.5743 7.12555 55.7622 7.25722 53.898H7.41212V59.707H7.25722C7.12555 57.7887 6.05672 57.0152 4.53867 56.8992C4.38376 56.8837 4.2366 56.8837 4.06621 56.8837V63.4276H5.88632V63.6365H0V63.4276H1.71168V50.3321H0V50.1233H10.4869Z" fill="white"/>
<path d="M16.3578 63.1414C15.653 63.6752 14.8165 63.9923 14.0033 63.9923C11.9508 63.9923 9.80542 61.9967 9.80542 59.4982C9.80542 56.9998 12.0283 55.0042 14.0033 55.0042C15.9783 55.0042 18.1857 56.9611 18.1857 59.4982C18.1857 61.0143 17.4267 62.3293 16.3656 63.1414H16.3578ZM11.9663 57.7733C11.9276 58.5546 11.9276 59.3281 11.9276 60.1093C11.9276 60.5425 11.9431 60.9988 11.9818 61.4397C12.1135 63.0332 12.5704 63.7912 13.9956 63.7912C14.832 63.7912 15.3432 63.505 15.6453 62.9403C15.8699 62.5226 16.0093 61.5712 16.0093 61.2541L16.048 59.4905C16.048 59.1656 16.048 58.2761 16.0093 57.6727C15.9551 56.76 15.7615 56.2108 15.5756 55.9246C15.2115 55.3909 14.7004 55.2207 13.9801 55.2207C13.6393 55.2207 13.1049 55.2981 12.7408 55.5843C12.1135 56.0948 11.9818 57.2937 11.9586 57.7888L11.9663 57.7733Z" fill="white"/>
<path d="M24.9007 57.2627C24.3121 57.2627 23.948 56.9765 23.948 56.582C23.948 56.3577 24.0255 56.0328 24.0255 55.8008C24.0255 55.5146 23.8551 55.3831 23.5685 55.3831C22.7863 55.3831 22.2983 56.5434 22.2983 58.0749V63.4276H23.6692V63.6364H19.0376V63.4276H20.4085V55.5687H19.0376V55.3599H22.3061V56.4583C22.6314 55.4527 23.22 54.9963 24.1494 54.9963C25.2492 54.9963 25.9153 55.7931 25.9153 56.4737C25.9153 56.876 25.6132 57.255 24.9084 57.255L24.9007 57.2627Z" fill="white"/>
<path d="M28.2467 59.0264V59.8231C28.2467 62.0044 28.3396 63.7912 30.3146 63.7912C31.701 63.7912 32.8783 63.0486 33.4127 61.9116L33.6063 61.9889C33.0719 63.242 31.763 64 30.3224 64C27.9291 64 26.1245 62.2519 26.1245 59.7303C26.1245 57.2086 28.0221 55.0042 30.1907 55.0042C31.9411 55.0042 33.6683 56.5976 33.6683 59.0264H28.2544H28.2467ZM31.8559 58.8175C31.8172 57.1313 31.763 56.0484 31.1898 55.5379C30.9265 55.3136 30.5857 55.213 30.09 55.213C29.2148 55.213 28.7579 55.592 28.51 56.2572C28.3164 56.7677 28.2854 57.433 28.2622 58.0208L28.2467 58.8175H31.8559Z" fill="white"/>
<path d="M40.3057 55.36H40.4607V57.3556H40.3057C40.0579 55.9169 39.2059 55.213 38.1603 55.213C37.3239 55.213 36.619 55.6462 36.619 56.5202C36.619 57.2241 37.0373 57.7114 37.7576 58.1136C38.5399 58.6087 39.2989 58.9104 40.1121 59.4054C40.8944 59.8772 41.3049 60.3336 41.3049 61.1922C41.3049 61.8961 40.9796 62.6309 40.3135 63.1879C39.6706 63.7371 38.8342 64.0078 38.0132 64.0078C37.5949 64.0078 37.0992 63.915 36.5493 63.7061C36.0149 63.5127 35.7129 63.4199 35.5812 63.4199C35.3721 63.4199 35.2404 63.4973 35.163 63.6442H35.0081V60.8905H35.163C35.5425 62.7856 36.7042 63.7912 38.0906 63.7912C39.477 63.7912 40.1044 63.0486 40.1044 62.2364C40.1044 61.5944 39.6474 61.1535 38.7567 60.7358C37.866 60.3181 37.107 59.9546 36.4796 59.5214C35.8755 59.0883 35.5657 58.3998 35.5657 57.5103C35.5657 56.7677 35.8136 56.1799 36.3092 55.708C36.8049 55.2362 37.471 55.0042 38.1139 55.0042C39.0278 55.0042 39.6164 55.476 39.9959 55.476C40.1508 55.476 40.2051 55.4605 40.298 55.36H40.3057Z" fill="white"/>
<path d="M45.3248 55.3599H47.2223V55.5688H45.3248V62.9093C45.3248 63.4585 45.441 63.6906 45.8747 63.6906C46.4633 63.6906 46.9745 63.2342 47.2069 62.453L47.416 62.5071C47.1294 63.6287 46.2774 63.9845 45.441 63.9845C43.9771 63.9845 43.4272 63.095 43.4272 61.401V55.5533H41.9634V55.3444H43.4272V52.9311C43.5434 52.9543 43.6751 52.9698 43.7912 52.9698C44.5735 52.9311 45.0305 52.3974 45.3325 51.9255V55.3367L45.3248 55.3599Z" fill="white"/>
<path d="M50.0338 59.0264V59.8231C50.0338 62.0044 50.1267 63.7912 52.1018 63.7912C53.4881 63.7912 54.6654 63.0486 55.1998 61.9116L55.3934 61.9889C54.859 63.242 53.5501 64 52.1095 64C49.7162 64 47.9116 62.2519 47.9116 59.7303C47.9116 57.2086 49.8092 55.0042 51.9778 55.0042C53.7282 55.0042 55.4554 56.5976 55.4554 59.0264H50.0415H50.0338ZM53.643 58.8175C53.6043 57.1313 53.5501 56.0484 52.977 55.5379C52.7136 55.3136 52.3728 55.213 51.8771 55.213C51.0019 55.213 50.545 55.592 50.2971 56.2572C50.1112 56.7677 50.0725 57.433 50.0493 58.0208L50.026 58.8175H53.6353H53.643Z" fill="white"/>
<path d="M62.0929 55.36H62.2478V57.3556H62.0929C61.8451 55.9169 60.9931 55.213 59.9475 55.213C59.111 55.213 58.4062 55.6462 58.4062 56.5202C58.4062 57.2241 58.8245 57.7114 59.5448 58.1136C60.327 58.6087 61.0861 58.9104 61.8993 59.4054C62.6816 59.8772 63.0998 60.3336 63.0998 61.1922C63.0998 61.8961 62.7745 62.6309 62.1084 63.1879C61.4656 63.7371 60.6291 64.0078 59.8081 64.0078C59.3899 64.0078 58.8942 63.915 58.3443 63.7061C57.8099 63.5127 57.5078 63.4199 57.3761 63.4199C57.167 63.4199 57.0353 63.4973 56.9579 63.6442H56.803V60.8905H56.9579C57.3374 62.7856 58.4992 63.7912 59.8856 63.7912C61.2719 63.7912 61.8993 63.0486 61.8993 62.2364C61.8993 61.5944 61.4423 61.1535 60.5516 60.7358C59.6609 60.3181 58.9019 59.9546 58.2746 59.5214C57.6704 59.0883 57.3606 58.3998 57.3606 57.5103C57.3606 56.7677 57.6085 56.1799 58.1042 55.708C58.5999 55.2362 59.2659 55.0042 59.9088 55.0042C60.8227 55.0042 61.4114 55.476 61.7909 55.476C61.9458 55.476 62 55.4605 62.0929 55.36Z" fill="white"/>
<path d="M69.8614 55.36H70.0163V57.3556H69.8614C69.6136 55.9169 68.7616 55.213 67.716 55.213C66.8795 55.213 66.1747 55.6462 66.1747 56.5202C66.1747 57.2241 66.593 57.7114 67.3133 58.1136C68.0955 58.6087 68.8545 58.9104 69.6678 59.4054C70.45 59.8772 70.8605 60.3336 70.8605 61.1922C70.8605 61.8961 70.5352 62.6309 69.8692 63.1879C69.2263 63.7371 68.3898 64.0078 67.5688 64.0078C67.1506 64.0078 66.6549 63.915 66.105 63.7061C65.5706 63.5127 65.2685 63.4199 65.1369 63.4199C64.9277 63.4199 64.7961 63.4973 64.7186 63.6442H64.5637V60.8905H64.7186C65.0981 62.7856 66.2599 63.7912 67.6463 63.7912C69.0327 63.7912 69.66 63.0486 69.66 62.2364C69.66 61.5944 69.2031 61.1535 68.3124 60.7358C67.4217 60.3181 66.6627 59.9546 66.0353 59.5214C65.4312 59.0883 65.1214 58.3998 65.1214 57.5103C65.1214 56.7677 65.3692 56.1799 65.8649 55.708C66.3606 55.2362 67.0267 55.0042 67.6695 55.0042C68.5835 55.0042 69.1721 55.476 69.5516 55.476C69.7065 55.476 69.7607 55.4605 69.8537 55.36H69.8614Z" fill="white"/>
<path d="M38.4237 10.9374L27.9058 40.7019C27.9058 40.7019 27.929 40.6401 27.9445 40.6091L38.4237 10.9451V10.9374Z" fill="white"/>
<path d="M53.8753 10.9374L49.2514 24.0329L43.3496 40.7329V40.7251L53.8753 10.9374Z" fill="white"/>
<path d="M26.8292 21.8748L26.5891 22.5477L26.8292 21.8748Z" fill="white"/>
<path d="M42.8384 1.57022C42.4434 0.657481 41.5295 0.00773507 40.4684 0H37.4555C36.8901 0 36.3247 0.131496 35.829 0.402224C34.7679 0.974619 33.9237 1.92603 33.4745 3.07082L31.2826 9.26662L30.694 10.9374L26.8292 21.8748L26.5891 22.5477L20.4084 40.0445C20.4084 40.0445 20.3929 40.0832 20.3774 40.0986L20.2535 40.4467C19.8043 41.5992 18.9601 42.5506 17.8912 43.123C17.3878 43.3938 16.8301 43.5253 16.2648 43.5253H15.5909C15.5367 43.5253 15.4902 43.5717 15.4902 43.6258C15.4902 43.68 15.5367 43.7264 15.5909 43.7264H18.6967H19.0995H23.1812C25.2956 43.7186 27.108 42.4501 27.9212 40.6401L27.9367 40.5859C27.9367 40.5859 27.9135 40.6478 27.898 40.6788L38.4159 10.9142L40.9718 3.6819C41.1035 3.30288 41.5527 3.13271 41.909 3.34155C42.1801 3.49625 42.2962 3.82113 42.1956 4.11506L39.1052 12.8712L41.0802 18.4559L41.5992 19.9333L45.464 8.99589L42.8384 1.55475V1.57022Z" fill="white"/>
<path d="M63.2159 27.0341H70.7984C70.7984 27.0341 70.8217 27.0263 70.8372 27.0186C70.8759 27.0031 70.9069 26.9722 70.9069 26.9258C70.9069 26.8794 70.8759 26.8562 70.8372 26.833C70.8217 26.833 70.8139 26.8175 70.7984 26.8175H70.1246C69.9852 26.8175 69.838 26.8098 69.6986 26.7943C69.2804 26.7479 68.8699 26.6164 68.4904 26.4153C68.2115 26.2683 67.9482 26.0904 67.7081 25.897C67.011 25.3401 66.4689 24.5975 66.1281 23.7467L65.7796 22.7875L58.29 1.58569C57.9027 0.665216 56.9888 0.00773507 55.9277 0H52.9226C52.3572 0 51.7918 0.131496 51.2961 0.402224C50.266 0.959149 49.445 1.86415 48.9803 2.96253L35.8755 40.0522C35.8755 40.0522 35.8445 40.1218 35.8213 40.1528L35.6122 40.7484L35.7593 40.3229C35.434 41.2357 34.8609 42.0247 34.1251 42.6125C33.8772 42.8059 33.6217 42.9838 33.3428 43.1308C32.9711 43.3319 32.5606 43.4556 32.1346 43.5098C31.9952 43.5253 31.8558 43.533 31.7086 43.533H31.0348C31.0348 43.533 30.9806 43.5485 30.9651 43.5639C30.9496 43.5794 30.9341 43.6103 30.9341 43.6413C30.9341 43.6722 30.9418 43.6954 30.9651 43.7186C30.9806 43.7341 31.0115 43.7496 31.0348 43.7496H35.86H38.625C40.7162 43.7418 42.5054 42.5042 43.3341 40.7329L49.2359 24.0329L53.8675 10.9374L56.4234 3.7051C56.5551 3.32608 57.0043 3.15591 57.3606 3.36476C57.6317 3.51946 57.7478 3.84433 57.6471 4.13826L54.5568 12.8866L56.9114 19.5543L58.4604 23.9323C59.2659 25.7578 61.086 27.0341 63.2159 27.0418V27.0341Z" fill="white"/>
<path d="M27.3947 1.6089C27.0074 0.672951 26.0857 0.00773507 25.0092 0H22.004C21.4386 0 20.8732 0.131496 20.3775 0.402224C19.27 0.997824 18.3948 2.00338 17.9611 3.21779C17.9611 3.21006 17.9611 3.20232 17.9688 3.19459L4.87173 40.2533L4.56967 40.934C4.08947 41.8699 3.33819 42.6357 2.42426 43.1308C1.92083 43.4015 1.36317 43.533 0.797777 43.533H0.131693C0.0774768 43.533 0.0310059 43.5794 0.0310059 43.6335C0.0310059 43.6877 0.0774768 43.7341 0.131693 43.7341H3.46211H3.64025H7.71421C9.82089 43.7264 11.6255 42.4733 12.4388 40.671L25.5126 3.7051C25.6443 3.32608 26.0935 3.15591 26.4498 3.36476C26.7208 3.51946 26.837 3.84433 26.7363 4.13826L23.646 12.8789L26.1399 19.941L30.0048 9.00362L27.3947 1.61663V1.6089Z" fill="white"/>
<path d="M70.7676 37.2212L67.2668 36.7107C67.2203 36.7107 67.1738 36.672 67.1583 36.6334L65.5938 33.4697C65.5396 33.3537 65.3692 33.3537 65.315 33.4697L63.7505 36.6334C63.7272 36.6798 63.6885 36.7107 63.642 36.7107L60.1412 37.2212C60.0096 37.2367 59.9631 37.3991 60.056 37.4842L62.5887 39.9517C62.5887 39.9517 62.6429 40.0368 62.6274 40.0832L62.031 43.564C62.0078 43.6877 62.1395 43.7883 62.2557 43.7264L65.3847 42.0866C65.4312 42.0634 65.4776 42.0634 65.5241 42.0866L68.6532 43.7264C68.7693 43.7883 68.901 43.6877 68.8778 43.564L68.2814 40.0832C68.2736 40.0368 68.2814 39.9826 68.3201 39.9517L70.8528 37.4842C70.9457 37.3914 70.8915 37.2367 70.7676 37.2212Z" fill="white"/>
<path d="M213.054 26.5468H209.112L209.034 26.8407C207.733 31.5668 205.557 35.3106 202.567 37.9483C199.33 40.8102 195.016 42.5584 189.516 43.1772C189.16 43.1772 188.889 43.0689 188.688 42.8832C188.448 42.6667 188.293 42.3573 188.293 42.0401V16.8779H184.784V46.8745L185.504 46.8591H185.497C193.892 46.774 200.553 44.6314 205.293 40.4931C209.042 37.2212 211.613 32.6807 212.946 27.0341L213.054 26.5468Z" fill="white"/>
<path d="M145.322 17.0559V16.8934H145.16H117.618L116.479 20.1344H140.056C140.373 20.1344 140.66 20.2969 140.877 20.5289C141.086 20.7687 141.194 21.1787 141.171 21.3798C140.613 27.4827 138.484 32.557 134.851 36.4632C131.443 40.1219 126.835 42.6048 121.15 43.8502L120.979 43.8888L122.025 46.8668C128.562 45.7221 133.898 42.9838 137.864 38.6831C142.712 33.4388 145.214 26.1678 145.315 17.0559C145.315 17.0559 145.315 17.0481 145.315 17.0404L145.322 17.0559Z" fill="white"/>
<path d="M172.795 24.8992C172.237 24.8992 171.656 24.3964 171.656 23.7776V20.0416V19.8792H168.388V23.7776C168.388 24.3964 167.822 24.8992 167.265 24.8992H151.441L150.442 27.7225H161.611C161.951 27.7225 162.292 27.9236 162.501 28.2176C162.71 28.5115 162.765 28.8982 162.672 29.2076C160.495 35.504 156.654 40.2533 151.255 43.3164L151.023 43.4479L151.929 46.0082C154.872 44.6314 157.521 42.6899 159.791 40.1992C162.672 37.0355 164.918 32.4177 166.227 28.117C166.351 27.7612 166.699 27.7148 166.784 27.7148H167.784C168.132 27.7148 168.364 27.9932 168.364 28.2717L168.38 46.8668L171.648 46.8514V28.8364C171.648 28.2176 172.214 27.7148 172.771 27.7148H177.24L178.24 24.8915H172.795V24.8992Z" fill="white"/>
<path d="M246.521 42.9993L246.436 42.9451C241.835 40.0832 238.59 36.3316 236.785 31.8144C236.653 31.4817 236.684 31.1027 236.87 30.7933C239.333 26.7169 240.921 22.161 241.587 17.2569L241.641 16.8779H218.685L217.554 20.1035H235.825C236.173 20.1035 236.506 20.32 236.715 20.5985C236.925 20.877 236.963 21.2869 236.909 21.5344C235.437 27.0496 232.487 31.9072 228.141 35.9758C224.509 39.3715 220.35 41.839 215.788 43.3087L215.633 43.3628L216.686 46.364C223.099 44.4457 228.637 40.9185 233.145 35.8443C233.486 35.4653 234.338 35.2797 234.903 35.9913C237.591 40.7406 241.293 44.2988 245.8 46.5033L246.536 46.8745L247.659 43.6877L246.536 43.007L246.521 42.9993Z" fill="white"/>
<path d="M279.965 16.8934H255.955L254.878 19.972H279.965L281.041 16.8934H279.965Z" fill="white"/>
<path d="M283.001 27.1115H252.368L251.331 30.0662H266.341C266.666 30.0662 266.968 30.2442 267.185 30.4917C267.456 30.7856 267.479 31.1414 267.448 31.4044C266.984 34.8543 265.582 37.6698 263.274 39.8589C261.213 41.8081 258.448 43.1385 255.048 43.8192L254.831 43.8579L255.885 46.8668C259.796 46.1165 263.064 44.701 265.589 42.6357C268.982 39.8666 270.941 36.0764 271.576 31.0486C271.662 30.4839 272.157 30.0662 272.692 30.0662H281.955L282.993 27.1115H283.001Z" fill="white"/>
<path d="M317.885 42.9993L317.8 42.9451C313.199 40.0832 309.954 36.3316 308.149 31.8144C308.017 31.4817 308.048 31.1027 308.234 30.7933C310.697 26.7169 312.285 22.161 312.951 17.2569L313.005 16.8779H290.049L288.918 20.1035H307.189C307.537 20.1035 307.87 20.32 308.079 20.5985C308.289 20.877 308.327 21.2869 308.273 21.5344C306.801 27.0496 303.851 31.9072 299.506 35.9758C295.873 39.3715 291.714 41.839 287.152 43.3087L286.997 43.3628L288.05 46.364C294.463 44.4457 300.001 40.9185 304.509 35.8443C304.85 35.4653 305.702 35.2797 306.267 35.9913C308.955 40.7406 312.657 44.2988 317.164 46.5033L317.9 46.8745L319.023 43.6877L317.9 43.007L317.885 42.9993Z" fill="white"/>
<path d="M81.2079 25.7113L81.8198 27.181C82.0986 26.771 82.9816 25.3246 83.5625 24.4041V30.7469H84.9024V24.0251C85.4523 24.7135 86.25 25.7423 86.3662 25.8738L86.9084 24.435C86.7612 24.2726 85.7234 22.9112 84.9024 21.867V20.5134H86.6838V19.1752H84.9024V16.7386H83.5625V19.1752H81.4326V20.5134H83.5625V21.9057C83.1287 22.5941 81.6881 24.9842 81.2002 25.7113H81.2079Z" fill="white"/>
<path d="M95.7301 23.5688V22.2306H92.2603V19.7786H95.2577V18.4404H92.2603V16.731H90.9204V18.4404H89.3016C89.4333 17.9531 89.5417 17.5122 89.5882 17.2183L88.2638 17.079C88.1399 17.8448 87.4738 20.0957 87.1872 20.7687L88.38 21.2018C88.5039 20.9079 88.7285 20.3587 88.9144 19.7786H90.9281V22.2306H87.2879V23.5688H90.781C90.2388 24.4583 88.5968 26.686 87.04 28.7049L87.923 29.6563C89.2552 27.9236 90.3085 26.6241 90.9281 25.7423V30.7469H92.268V25.6495C93.1665 27.0031 94.4212 28.7745 95.0873 29.5093L95.916 28.5269C95.064 27.5833 93.2672 24.7522 92.5004 23.5688H95.7379H95.7301Z" fill="white"/>
<path d="M110.616 19.4614L111.569 18.6028C111.29 18.1697 110.593 17.3652 109.912 16.6923L108.92 17.5973C109.393 18.0614 110.399 19.1288 110.616 19.4692V19.4614Z" fill="white"/>
<path d="M98.3325 28.991L98.7043 30.3446C100.85 30.159 102.747 29.9424 105.683 29.1302V27.7689C104.699 28.0396 103.622 28.233 102.778 28.3954V24.5279H104.893V23.1897H98.9366V24.5279H101.438V28.6197C100.408 28.7744 99.2774 28.9059 98.3325 28.991Z" fill="white"/>
<path d="M109.811 30.2905C111.104 30.2905 111.685 29.2462 112.158 28.4108C112.251 28.2484 112.251 28.2097 112.251 28.2097L111.445 26.9102C111.445 26.9102 111.089 27.5832 110.988 27.7611C110.524 28.5965 110.268 28.96 109.811 28.96C108.765 28.96 107.983 24.9223 107.65 20.8692H111.933V19.531H107.557C107.503 18.6028 107.472 17.6978 107.472 16.8701H106.132C106.132 17.2105 106.132 18.216 106.202 19.531H98.2319V20.8692H106.279C106.566 24.8604 107.402 30.2982 109.795 30.2982L109.811 30.2905Z" fill="white"/>
<path d="M92.1285 37.2057H84.8945V38.5439H92.1285V37.2057Z" fill="white"/>
<path d="M81.8818 41.7617H86.1804L84.2131 45.6292C83.1366 45.6911 82.1839 45.6834 82.1684 45.6834L82.6331 47.0447C82.8655 47.0447 87.9308 46.9596 92.5934 45.7916L93.5383 47.037L94.9015 46.4955L91.5168 42.6357L90.3163 43.1772L91.6175 44.6391C89.5883 45.0955 87.4738 45.3585 85.7854 45.5055L87.6985 41.7539H95.3274V40.4158H81.8973V41.7539L81.8818 41.7617Z" fill="white"/>
<path d="M104.56 41.8003C104.56 41.8003 103.119 40.5085 102.112 39.4333C102.856 38.304 103.421 37.2675 103.708 36.6951L103.692 35.2951H101.857V33.0674H100.517V35.2951H98.1932V36.6333H102.228C101.407 38.1493 99.6028 41.0113 97.6355 42.3108L98.3093 43.5948C99.0606 43.0998 99.8739 42.3108 100.517 41.5605V47.0215H101.857V41.0809C102.763 41.9705 103.754 42.9141 103.808 42.9605L104.56 41.7925V41.8003Z" fill="white"/>
<path d="M108.998 38.9074H111.995V37.5693H108.998V33.3304H107.658V37.5693H104.738V38.9074H107.658V45.2038H104.366V46.5419H112.282V45.2038H108.998V38.9074Z" fill="white"/>
<path d="M95.2035 38.5438C92.6786 38.0488 89.8361 35.2719 88.6279 34.0652C85.7854 37.2288 82.1839 38.4046 82.0135 38.4587L81.4326 37.3217C81.4713 37.3062 85.4369 35.9216 88.0702 32.6574L89.0848 32.6265C89.1236 32.6651 92.9419 36.7725 95.6682 37.3062L95.1958 38.5593L95.2035 38.5438Z" fill="white"/>
</g>
<defs>
<clipPath id="clip0_4710_6109">
<rect width="319" height="64" fill="white"/>
</clipPath>
</defs>
</svg>
